<?xml version="1.0" encoding="UTF-8"?>
<svg version="1.1" xmlns="http://www.w3.org/2000/svg" width="533" height="109">
<path d="M0 0 C175.89 0 351.78 0 533 0 C533 35.97 533 71.94 533 109 C357.11 109 181.22 109 0 109 C0 73.03 0 37.06 0 0 Z " fill="#683075" transform="translate(0,0)"/>
<path d="M0 0 C0.78568359 -0.00773437 1.57136719 -0.01546875 2.38085938 -0.0234375 C3.15107422 -0.02085938 3.92128906 -0.01828125 4.71484375 -0.015625 C5.40570068 -0.01336914 6.09655762 -0.01111328 6.80834961 -0.00878906 C9.72697251 0.32628516 12.30677186 1.25670488 15.0625 2.25 C15.08755615 3.23395752 15.1126123 4.21791504 15.13842773 5.23168945 C15.2326082 8.88270057 15.3328029 12.53352616 15.43481445 16.18432617 C15.47812305 17.76436015 15.51980106 19.34443969 15.55981445 20.92456055 C15.61761583 23.19594048 15.6812816 25.46709189 15.74609375 27.73828125 C15.76280624 28.44463211 15.77951874 29.15098297 15.79673767 29.8787384 C15.8884747 32.9164824 16.09457686 35.34623058 17.0625 38.25 C13.04240543 38.32455949 9.02258267 38.37879358 5.00195312 38.41479492 C3.63632184 38.42981428 2.27073824 38.45023608 0.90527344 38.47631836 C-1.06553905 38.51300137 -3.03671408 38.52818551 -5.0078125 38.54296875 C-6.19133301 38.5586792 -7.37485352 38.57438965 -8.59423828 38.59057617 C-12.9755514 38.14425429 -16.34705962 36.73466287 -19.58203125 33.71484375 C-24.57627182 27.18391377 -24.46405312 22.38673596 -23.9375 14.25 C-22.04392116 8.12371551 -17.33632278 4.06270548 -11.76953125 1.09375 C-7.81625719 -0.08405303 -4.10210754 -0.04018391 0 0 Z " fill="#C09F63" transform="translate(425.9375,58.75)"/>
<path d="M0 0 C7.26 0 14.52 0 22 0 C19 2 19 2 17 2 C17 10.25 17 18.5 17 27 C25.58 27 34.16 27 43 27 C42.9175 23.101875 42.835 19.20375 42.75 15.1875 C42.72631348 13.34901489 42.72631348 13.34901489 42.70214844 11.47338867 C42.65622559 10.02283081 42.65622559 10.02283081 42.609375 8.54296875 C42.58842773 7.55321045 42.56748047 6.56345215 42.54589844 5.54370117 C42.17202394 2.44538037 42.17202394 2.44538037 38 0 C44.93 0 51.86 0 59 0 C57.68 0.99 56.36 1.98 55 3 C54.41620846 5.25378013 54.41620846 5.25378013 54.5300293 7.80688477 C54.52710373 8.78121964 54.52417816 9.7555545 54.52116394 10.75941467 C54.53867203 11.80947189 54.55618011 12.85952911 54.57421875 13.94140625 C54.57750687 15.02002426 54.58079498 16.09864227 54.58418274 17.20994568 C54.59460993 19.49052967 54.61457039 21.77108694 54.64331055 24.05151367 C54.6873687 27.55206789 54.70474128 31.05193729 54.71679688 34.55273438 C54.73022113 36.76563494 54.74514415 38.97852703 54.76171875 41.19140625 C54.76910568 42.2434877 54.77649261 43.29556915 54.78410339 44.37953186 C54.80335625 45.83630592 54.80335625 45.83630592 54.82299805 47.32250977 C54.83776436 48.60799461 54.83776436 48.60799461 54.85282898 49.91944885 C54.87083364 52.06082388 54.87083364 52.06082388 56 54 C51.05 54 46.1 54 41 54 C41.495 53.01 41.495 53.01 42 52 C42.15266612 50.26131256 42.24932596 48.51752499 42.31640625 46.7734375 C42.35451416 45.84450684 42.39262207 44.91557617 42.43188477 43.95849609 C42.47498779 42.77594238 42.51809082 41.59338867 42.5625 40.375 C42.706875 36.62125 42.85125 32.8675 43 29 C34.42 29 25.84 29 17 29 C17.33 37.25 17.66 45.5 18 54 C13.38 54 8.76 54 4 54 C4.33 53.34 4.66 52.68 5 52 C5.09003966 50.42708792 5.11756509 48.85038425 5.11352539 47.27490234 C5.11344986 46.29403656 5.11337433 45.31317078 5.11329651 44.30258179 C5.10813522 43.24108917 5.10297394 42.17959656 5.09765625 41.0859375 C5.09553383 39.45877304 5.09553383 39.45877304 5.09336853 37.79873657 C5.08775802 34.32413 5.07520372 30.84958719 5.0625 27.375 C5.05748635 25.02343843 5.05292321 22.67187585 5.04882812 20.3203125 C5.03778518 14.54685314 5.02103679 8.77343112 5 3 C2.525 2.01 2.525 2.01 0 1 C0 0.67 0 0.34 0 0 Z " fill="#E5CE8D" transform="translate(124,42)"/>
<path d="M0 0 C4.62 0 9.24 0 14 0 C14.33 1.65 14.66 3.3 15 5 C15.44988281 4.6390625 15.89976562 4.278125 16.36328125 3.90625 C21.33626042 0.31852955 25.36105646 -0.82148175 31.5 -0.57421875 C34.33620908 0.07722302 35.34127029 0.79186731 37.1875 3 C37.785625 3.99 38.38375 4.98 39 6 C39.60585938 5.566875 40.21171875 5.13375 40.8359375 4.6875 C46.19928242 1.12293845 50.28290666 -0.89701336 56.80078125 -0.45703125 C60.10621339 0.22988804 61.80686016 1.46418206 64 4 C65.93420639 7.92641319 66.29483808 11.26159004 66.4140625 15.61328125 C66.45273437 16.86044922 66.49140625 18.10761719 66.53125 19.39257812 C66.5621875 20.68615234 66.593125 21.97972656 66.625 23.3125 C66.66367187 24.62541016 66.70234375 25.93832031 66.7421875 27.29101562 C66.83633117 30.52720437 66.92196352 33.76338935 67 37 C63.37 37 59.74 37 56 37 C55.97494385 36.14245117 55.9498877 35.28490234 55.92407227 34.40136719 C55.82876588 31.2106563 55.72954249 28.02009781 55.62768555 24.82958984 C55.5844545 23.45040622 55.54277134 22.07117315 55.50268555 20.69189453 C55.44469597 18.70593062 55.38062277 16.72014731 55.31640625 14.734375 C55.26141968 12.94338379 55.26141968 12.94338379 55.20532227 11.11621094 C55.03791006 8.57536745 54.73682141 6.4228576 54 4 C49.9380279 3.67504223 47.47816631 3.76211863 43.79443359 5.59472656 C40.72829454 7.74648412 40.72829454 7.74648412 40.31884766 11.11621094 C40.35026855 12.31020508 40.38168945 13.50419922 40.4140625 14.734375 C40.43339844 16.02988281 40.45273437 17.32539062 40.47265625 18.66015625 C40.522785 20.02346165 40.57357464 21.38674289 40.625 22.75 C40.65510869 24.12884865 40.68248297 25.5077599 40.70703125 26.88671875 C40.77778674 30.25939731 40.87648198 33.62890827 41 37 C37.37 37 33.74 37 30 37 C29.97494385 36.10692139 29.9498877 35.21384277 29.92407227 34.29370117 C29.82889814 30.97814546 29.72966717 27.66276271 29.62768555 24.34741211 C29.58439207 22.91288997 29.54271301 21.47831816 29.50268555 20.04370117 C29.44484733 17.9808048 29.38119247 15.91815717 29.31640625 13.85546875 C29.27974854 12.61434326 29.24309082 11.37321777 29.20532227 10.09448242 C29.12855879 6.96446653 29.12855879 6.96446653 28 4 C24.18188883 3.69455111 21.40032749 3.85455903 17.78515625 5.16796875 C14.45412353 8.55506373 14.54957039 9.57747446 14.37890625 14.19140625 C14.40947676 16.64900939 14.47191052 19.10637678 14.5625 21.5625 C14.58119141 22.80708984 14.59988281 24.05167969 14.61914062 25.33398438 C14.65156498 31.7707894 14.65156498 31.7707894 16 38 C12.04 38 8.08 38 4 38 C4 26.12 4 14.24 4 2 C2.68 2 1.36 2 0 2 C0 1.34 0 0.68 0 0 Z " fill="#CC9F52" transform="translate(234,59)"/>
<path d="M0 0 C14.19 0 28.38 0 43 0 C45 9 45 9 44 13 C43.31164062 12.16855469 43.31164062 12.16855469 42.609375 11.3203125 C41.99578125 10.59585938 41.3821875 9.87140625 40.75 9.125 C40.14671875 8.40570313 39.5434375 7.68640625 38.921875 6.9453125 C34.72540503 2.69766607 30.50715897 2.62001019 24.75 2.375 C22.1925 2.25125 19.635 2.1275 17 2 C17 9.92 17 17.84 17 26 C27.06871668 26.31189467 27.06871668 26.31189467 35.9375 22.4375 C36.618125 21.633125 37.29875 20.82875 38 20 C38 24.95 38 29.9 38 35 C36.53515625 33.73046875 35.0703125 32.4609375 33.60546875 31.19140625 C28.74452273 27.58413488 23.06528162 28.50544013 17 28 C17 36.25 17 44.5 17 53 C29.70806754 53.38943547 29.70806754 53.38943547 40.484375 47.765625 C42.89665539 44.95544269 45.00125028 42.12304644 47 39 C48 42 48 42 44 56 C22.22 55.505 22.22 55.505 0 55 C1.65 53.68 3.3 52.36 5 51 C5.71414816 48.68103254 5.71414816 48.68103254 5.56762695 46.13964844 C5.5672493 45.17895447 5.56687164 44.2182605 5.56648254 43.22845459 C5.54067612 42.19915833 5.51486969 41.16986206 5.48828125 40.109375 C5.48120651 39.04962463 5.47413177 37.98987427 5.46684265 36.89801025 C5.43886336 33.51462084 5.37611521 30.13288884 5.3125 26.75 C5.28742184 24.45575307 5.26460784 22.1614802 5.24414062 19.8671875 C5.18902525 14.24422658 5.10536309 8.62223169 5 3 C2.525 2.01 2.525 2.01 0 1 C0 0.67 0 0.34 0 0 Z " fill="#E4D08C" transform="translate(349,42)"/>
<path d="M0 0 C1.30453125 -0.03738281 2.6090625 -0.07476562 3.953125 -0.11328125 C8.32518095 0.37700074 10.37769334 1.54381628 13.75 4.3125 C16.06282587 7.78173881 16.17478586 9.23455575 15.75 13.3125 C14.56323242 14.98168945 14.56323242 14.98168945 12.75 16.3125 C10.2980957 16.65307617 10.2980957 16.65307617 7.42578125 16.60546875 C6.39775391 16.59580078 5.36972656 16.58613281 4.31054688 16.57617188 C2.70276367 16.5384668 2.70276367 16.5384668 1.0625 16.5 C-0.02095703 16.48646484 -1.10441406 16.47292969 -2.22070312 16.45898438 C-4.89763405 16.42360643 -7.57356838 16.37424189 -10.25 16.3125 C-9.79638061 22.66356067 -9.79638061 22.66356067 -6.9375 28.1875 C-6.52886719 28.74179688 -6.12023437 29.29609375 -5.69921875 29.8671875 C-2.63059584 32.92753919 0.31225132 33.60492008 4.5625 33.625 C9.3234437 33.54741425 12.55304366 32.50221635 16.75 30.3125 C15.53774852 33.94925444 14.7375632 34.24733486 11.4375 36 C4.89324896 39.08956058 -1.63212922 39.67877912 -8.61328125 37.61328125 C-14.65956839 34.91465592 -18.64124221 30.39960151 -21.25 24.3125 C-22.13852109 18.81606723 -21.36366056 14.02726719 -18.6640625 9.171875 C-13.71327441 2.66199894 -7.93139537 0.14774168 0 0 Z " fill="#EFE2A1" transform="translate(329.25,58.6875)"/>
<path d="M0 0 C2.4375 1.75 2.4375 1.75 4 4 C4.7319841 9.96044196 4.7319841 9.96044196 2.80541992 12.6965332 C0.33818994 14.47780986 -1.30093047 14.3430785 -4.32421875 14.29296875 C-5.35224609 14.28330078 -6.38027344 14.27363281 -7.43945312 14.26367188 C-9.04723633 14.2259668 -9.04723633 14.2259668 -10.6875 14.1875 C-11.77095703 14.17396484 -12.85441406 14.16042969 -13.97070312 14.14648438 C-16.64763405 14.11110643 -19.32356838 14.06174189 -22 14 C-21.71249839 15.42976328 -21.41657752 16.85783504 -21.1171875 18.28515625 C-20.95331543 19.08058838 -20.78944336 19.87602051 -20.62060547 20.69555664 C-19.55259159 24.66132493 -17.69497494 27.94470644 -14.16796875 30.140625 C-8.97300621 32.19988943 -2.94992486 31.68087402 2.125 29.5 C3.07375 29.005 4.0225 28.51 5 28 C3.62732371 31.36800987 2.42557847 32.72665609 -0.875 34.25 C-7.16515349 36.80252605 -13.82505117 37.2263051 -20.3671875 35.3046875 C-25.14958153 33.15712188 -28.00877319 30.26023212 -31 26 C-32.86871551 20.39385348 -33.25722131 13.36042331 -31.1640625 7.765625 C-27.90785165 2.82667431 -22.63500219 -0.88262578 -16.9921875 -2.6171875 C-10.54261888 -3.85651637 -5.77992635 -3.11226804 0 0 Z " fill="#A47742" transform="translate(520,61)"/>
<path d="M0 0 C4.29729909 2.775339 7.69861922 6.33473844 10 10.9375 C10.68766095 18.26503472 10.71467205 24.97199659 6 30.9375 C3.86191533 33.01109487 1.77941845 34.82207549 -1 35.9375 C-3.21875 35.55859375 -3.21875 35.55859375 -5 34.9375 C-4.360625 34.31875 -3.72125 33.7 -3.0625 33.0625 C0.77012189 29.11373805 0.33478638 25.56025247 0.27734375 20.25 C-0.26330631 13.7926584 -2.02004049 7.29833049 -6.875 2.75 C-10.37986364 0.71717909 -12.03020763 0.16080149 -16 0.9375 C-19.16208899 3.25136439 -19.92415879 4.50018185 -20.6015625 8.40625 C-20.63945898 9.74948823 -20.64579059 11.09388813 -20.625 12.4375 C-20.62024658 13.14148926 -20.61549316 13.84547852 -20.6105957 14.57080078 C-20.34250185 21.51293768 -18.03418836 27.26411588 -14 32.9375 C-11.08235 34.8826 -9.37462715 35.39026317 -6 35.9375 C-6 36.2675 -6 36.5975 -6 36.9375 C-12.13439944 37.32089996 -17.61425842 37.16894495 -23 33.9375 C-28.13890029 29.32274475 -30.99535211 24.56543805 -31.375 17.625 C-31.1857575 11.62900071 -29.40233923 7.41375736 -25.22265625 3.10546875 C-18.13622828 -2.52936317 -8.45947073 -2.97021417 0 0 Z " fill="#DAB86F" transform="translate(219,60.0625)"/>
<path d="M0 0 C1.57299805 1.09985352 1.57299805 1.09985352 2.83203125 2.86328125 C3.66304434 7.57865991 3.48428274 12.21614855 3.33203125 16.98828125 C3.32171875 18.28894531 3.31140625 19.58960938 3.30078125 20.9296875 C3.14052993 30.55478257 3.14052993 30.55478257 0.83203125 32.86328125 C-2.59430564 33.55964109 -5.74307866 33.56191681 -9.16796875 32.86328125 C-11.79922975 30.91122786 -13.48774904 28.65607888 -15.16796875 25.86328125 C-15.54050781 25.28835937 -15.91304688 24.7134375 -16.296875 24.12109375 C-17.58186956 20.79048006 -17.57639621 17.50928859 -17.60546875 13.98828125 C-17.63833984 13.29347656 -17.67121094 12.59867188 -17.70507812 11.8828125 C-17.74558928 7.97164466 -17.22965945 5.43678316 -14.828125 2.41796875 C-10.26234638 -1.96678781 -5.82263414 -2.0892559 0 0 Z " fill="#6F3979" transform="translate(429.16796875,61.13671875)"/>
<path d="M0 0 C7.26 0 14.52 0 22 0 C19 2 19 2 17 2 C17 10.25 17 18.5 17 27 C18.98 27 20.96 27 23 27 C23 27.33 23 27.66 23 28 C20.69 28 18.38 28 16 28 C16.13842295 31.95862931 16.28699006 35.91681327 16.4375 39.875 C16.47681641 41.00292969 16.51613281 42.13085938 16.55664062 43.29296875 C16.59853516 44.36933594 16.64042969 45.44570312 16.68359375 46.5546875 C16.72025146 47.54968262 16.75690918 48.54467773 16.79467773 49.56982422 C16.84959532 52.00779501 16.84959532 52.00779501 18 54 C13.38 54 8.76 54 4 54 C4.33 53.34 4.66 52.68 5 52 C5.09003966 50.42708792 5.11756509 48.85038425 5.11352539 47.27490234 C5.11344986 46.29403656 5.11337433 45.31317078 5.11329651 44.30258179 C5.10813522 43.24108917 5.10297394 42.17959656 5.09765625 41.0859375 C5.09553383 39.45877304 5.09553383 39.45877304 5.09336853 37.79873657 C5.08775802 34.32413 5.07520372 30.84958719 5.0625 27.375 C5.05748635 25.02343843 5.05292321 22.67187585 5.04882812 20.3203125 C5.03778518 14.54685314 5.02103679 8.77343112 5 3 C2.525 2.01 2.525 2.01 0 1 C0 0.67 0 0.34 0 0 Z " fill="#F6EAA5" transform="translate(124,42)"/>
<path d="M0 0 C3.40141571 1.4035164 6.794992 2.82510197 10.1875 4.25 C11.14720703 4.64574219 12.10691406 5.04148437 13.09570312 5.44921875 C19.75722635 8.26134966 26.08417118 10.94062497 29 18 C29.23668633 21.34962612 29.17570656 24.64856013 29 28 C26.00779732 26.63629701 23.70973471 25.05091917 21.25 22.875 C20.63640625 22.33617188 20.0228125 21.79734375 19.390625 21.2421875 C18.93171875 20.83226563 18.4728125 20.42234375 18 20 C18.40992187 20.54269531 18.81984375 21.08539063 19.2421875 21.64453125 C19.78101562 22.35996094 20.31984375 23.07539062 20.875 23.8125 C21.67550781 24.87404297 21.67550781 24.87404297 22.4921875 25.95703125 C23.70814781 27.60456297 24.86416141 29.29624211 26 31 C19.3367268 31.55118988 14.20507962 31.56701044 8.65234375 27.55859375 C5.91628301 24.9777705 4.58790811 22.42010977 3 19 C2.649375 18.25363281 2.29875 17.50726563 1.9375 16.73828125 C0.7775146 13.35015724 0.57525423 10.25870051 0.375 6.6875 C0.30023438 5.43324219 0.22546875 4.17898437 0.1484375 2.88671875 C0.09945312 1.93410156 0.05046875 0.98148438 0 0 Z " fill="#61276D" transform="translate(41,46)"/>
<path d="M0 0 C9.69276798 4.9489849 18.38641584 11.23396741 27.13671875 17.6640625 C28.13058594 18.3859375 29.12445313 19.1078125 30.1484375 19.8515625 C36.34192998 24.47922838 36.34192998 24.47922838 38.13671875 28.6640625 C34.00514358 28.98689849 32.05060458 28.32227569 28.73046875 25.8828125 C27.910625 25.29169678 27.09078125 24.70058105 26.24609375 24.09155273 C25.385 23.45548096 24.52390625 22.81940918 23.63671875 22.1640625 C21.83640734 20.87122688 20.0343241 19.580855 18.23046875 18.29296875 C17.35648437 17.66664551 16.4825 17.04032227 15.58203125 16.39501953 C-0.33834432 4.83058978 -0.33834432 4.83058978 -19.05419922 1.09570312 C-31.63433506 3.64103219 -43.25694041 13.40497522 -53.58862305 20.57910156 C-55.55337937 21.93886318 -57.52619772 23.28623092 -59.5 24.6328125 C-60.09681076 25.05348999 -60.69362152 25.47416748 -61.30851746 25.90759277 C-62.9909668 27.05273437 -62.9909668 27.05273437 -65.86328125 28.6640625 C-66.85328125 28.3340625 -67.84328125 28.0040625 -68.86328125 27.6640625 C-21.18890053 -9.88622644 -21.18890053 -9.88622644 0 0 Z " fill="#B69459" transform="translate(74.86328125,23.3359375)"/>
<path d="M0 0 C0.70318359 -0.01611328 1.40636719 -0.03222656 2.13085938 -0.04882812 C6.63705681 -0.05305137 9.4370287 0.62354966 13.0625 3.3125 C11.8766763 6.68753669 10.78676311 8.95972731 8.0625 11.3125 C7.629375 10.19875 7.19625 9.085 6.75 7.9375 C5.36338881 4.13737666 5.36338881 4.13737666 2.0625 2.3125 C-0.18872497 2.03418528 -0.18872497 2.03418528 -2.5625 2.125 C-3.35914063 2.13144531 -4.15578125 2.13789062 -4.9765625 2.14453125 C-6.94039734 2.10067102 -6.94039734 2.10067102 -7.9375 3.3125 C-8.52192963 6.18487733 -8.52192963 6.18487733 -7.9375 9.3125 C-4.38736373 12.67073701 -1.08131232 13.60522133 3.625 14.75 C8.397178 15.98530493 11.361489 16.93499942 14.0625 21.3125 C14.87104803 24.84178262 14.98161914 27.79855059 14.0625 31.3125 C12.04443377 33.84507322 9.79584153 35.59718873 7.0625 37.3125 C6.4025 36.9825 5.7425 36.6525 5.0625 36.3125 C5.7225 35.6525 6.3825 34.9925 7.0625 34.3125 C7.30462873 32.33121492 7.30462873 32.33121492 7.1875 30.1875 C7.14625 28.90875 7.105 27.63 7.0625 26.3125 C5.96550781 26.07015625 4.86851562 25.8278125 3.73828125 25.578125 C2.28369109 25.2402847 0.82927281 24.90170375 -0.625 24.5625 C-1.7068457 24.32660156 -1.7068457 24.32660156 -2.81054688 24.0859375 C-7.40071371 22.99603487 -10.46934718 21.68869422 -13.9375 18.3125 C-15.9713618 14.63217864 -16.45876257 11.48260056 -15.9375 7.3125 C-11.73163722 0.70328707 -7.49534512 -0.03416292 0 0 Z " fill="#B18A53" transform="translate(466.9375,58.6875)"/>
<path d="M0 0 C4.16055716 2.3403134 5.55219736 4.55026293 7 9 C7.31884766 12.13793945 7.31884766 12.13793945 7.4140625 15.61328125 C7.45273437 16.86044922 7.49140625 18.10761719 7.53125 19.39257812 C7.5621875 20.68615234 7.593125 21.97972656 7.625 23.3125 C7.66367187 24.62541016 7.70234375 25.93832031 7.7421875 27.29101562 C7.83633117 30.52720437 7.92196352 33.76338935 8 37 C4.37 37 0.74 37 -3 37 C-3.02505615 36.14245117 -3.0501123 35.28490234 -3.07592773 34.40136719 C-3.17123412 31.2106563 -3.27045751 28.02009781 -3.37231445 24.82958984 C-3.4155455 23.45040622 -3.45722866 22.07117315 -3.49731445 20.69189453 C-3.55530403 18.70593062 -3.61937723 16.72014731 -3.68359375 14.734375 C-3.72025146 13.54038086 -3.75690918 12.34638672 -3.79467773 11.11621094 C-3.96208994 8.57536745 -4.26317859 6.4228576 -5 4 C-11.11774896 3.50059192 -14.02495953 4.75099398 -19 8 C-17.80565424 4.28425762 -15.53532769 2.55941962 -12.1328125 0.765625 C-8.10653007 -0.67970716 -4.19213199 -0.70342554 0 0 Z " fill="#C69445" transform="translate(293,59)"/>
<path d="M0 0 C4.62 0 9.24 0 14 0 C15.16126578 7.28512831 15.07863151 14.44865893 15 21.8125 C14.97453355 24.23563282 14.95348602 26.65881734 14.9375 29.08203125 C14.92589844 30.14655518 14.91429687 31.2110791 14.90234375 32.30786133 C14.87712434 35.1007554 14.87712434 35.1007554 16 38 C12.04 38 8.08 38 4 38 C4 26.12 4 14.24 4 2 C2.68 2 1.36 2 0 2 C0 1.34 0 0.68 0 0 Z " fill="#D2AB62" transform="translate(234,59)"/>
<path d="M0 0 C10.14574565 0.9579095 22.58546878 5.48189953 29.5 13.1875 C33.18441501 18.04888092 34.17845478 22.46090998 34.3125 28.5 C34.55550906 33.98123974 34.55550906 33.98123974 37.5625 38.3125 C38.366875 38.869375 39.17125 39.42625 40 40 C39.67 40.99 39.34 41.98 39 43 C35.25201939 41.31987076 35.25201939 41.31987076 33.78125 39.453125 C31.09691566 37.2632733 28.7240759 37.62519923 25.3125 37.5625 C16.89718362 37.09498242 12.07218746 35.4184031 6.1875 29.375 C-0.86046121 20.60527658 -0.38652576 10.73682661 0 0 Z M1 2 C1.30251879 12.63353561 2.14103733 22.14103733 10 30 C15.35358721 33.78668363 20.71208341 33.30208852 27 33 C26.57847656 32.44570312 26.15695313 31.89140625 25.72265625 31.3203125 C24.90087891 30.23363281 24.90087891 30.23363281 24.0625 29.125 C23.51722656 28.40570313 22.97195312 27.68640625 22.41015625 26.9453125 C21 25 21 25 20 23 C20.55429687 23.5053125 21.10859375 24.010625 21.6796875 24.53125 C22.40414062 25.1809375 23.12859375 25.830625 23.875 26.5 C24.59429687 27.1496875 25.31359375 27.799375 26.0546875 28.46875 C27.84931098 30.20617272 27.84931098 30.20617272 30 30 C30.51896109 24.26836306 30.81655243 19.26183968 27.00390625 14.65625 C19.72018639 8.63617745 9.74775665 5.24513553 1 2 Z " fill="#9B7155" transform="translate(40,44)"/>
<path d="M0 0 C-1 2 -2 4 -3 6 C-4.08613426 17.91895783 -4.08613426 17.91895783 0.5546875 28.5234375 C2.54900551 30.5608759 4.71402732 32.30184886 7 34 C7 34.66 7 35.32 7 36 C1.24110366 36.34553378 -3.06169381 36.36702695 -8 33 C-12.5572809 28.36861697 -14.16128544 25.22616312 -14.25 18.75 C-14.17633951 12.66296465 -13.71754098 8.82913082 -9.3828125 4.31640625 C-4.73744226 0 -4.73744226 0 0 0 Z " fill="#CAAC71" transform="translate(416,61)"/>
<path d="M0 0 C-0.15597656 0.5053125 -0.31195313 1.010625 -0.47265625 1.53125 C-2.63403687 11.64971336 -1.59814254 20.69373674 3.39453125 29.7421875 C5.46030988 32.64734577 7.21586549 33.81764314 10.6875 34.625 C11.450625 34.74875 12.21375 34.8725 13 35 C13 35.33 13 35.66 13 36 C6.86560056 36.38339996 1.38574158 36.23144495 -4 33 C-9.13890029 28.38524475 -11.99535211 23.62793805 -12.375 16.6875 C-12.2176743 10.39447197 -9.90317656 5.85675762 -5.4375 1.5 C-3 0 -3 0 0 0 Z " fill="#E1C67F" transform="translate(200,61)"/>
<path d="M0 0 C2.04408229 0.00186883 4.08816503 0.00329053 6.13224792 0.00428772 C11.47011588 0.00807633 16.80795593 0.01787471 22.14581299 0.0289917 C27.60957461 0.03928511 33.07334082 0.04380221 38.53710938 0.04882812 C49.22657465 0.05950083 59.91601937 0.07653247 70.60546875 0.09765625 C71.10046875 1.08765625 71.10046875 1.08765625 71.60546875 2.09765625 C68.96423052 3.41827537 66.98887398 3.22477154 64.03051758 3.22705078 C62.85395599 3.23016266 61.67739441 3.23327454 60.46517944 3.23648071 C59.17729523 3.23449677 57.88941101 3.23251282 56.5625 3.23046875 C55.21277845 3.23148337 53.86305711 3.23282223 52.51333618 3.23446655 C48.89547504 3.2371698 45.27765663 3.23270115 41.65980148 3.22622681 C39.42653017 3.22266989 37.19326524 3.2210413 34.95999146 3.2199707 C11.83094135 3.20616774 -11.27884921 2.93025482 -34.39453125 2.09765625 C-34.39453125 1.76765625 -34.39453125 1.43765625 -34.39453125 1.09765625 C-22.9281294 -0.08273694 -11.51319322 -0.03117197 0 0 Z " fill="#C0A260" transform="translate(41.39453125,95.90234375)"/>
<path d="M0 0 C3.33474507 2.97998496 4.83654924 4.78579435 5.4375 9.25 C5 12 5 12 3 14 C0.0906442 14.14517744 -2.719946 14.18630796 -5.625 14.125 C-6.42679687 14.11597656 -7.22859375 14.10695313 -8.0546875 14.09765625 C-10.03658523 14.07406223 -12.01832981 14.03819065 -14 14 C-13.37395733 8.56569142 -12.41733402 5.3493342 -9 1 C-5.82121306 -0.58939347 -3.5043228 -0.41576711 0 0 Z " fill="#733E7A" transform="translate(332,60)"/>
<path d="M0 0 C3.33474507 2.97998496 4.83654924 4.78579435 5.4375 9.25 C5 12 5 12 3 14 C0.25514407 14.14507695 -2.38480543 14.18652423 -5.125 14.125 C-5.87910156 14.11597656 -6.63320313 14.10695313 -7.41015625 14.09765625 C-9.27357254 14.0740687 -11.13682593 14.03819719 -13 14 C-13.12404682 8.97315045 -13.13560604 6.06467449 -10 2 C-6.23500419 -0.5099972 -4.45706394 -0.61476744 0 0 Z " fill="#713D78" transform="translate(511,60)"/>
<path d="M0 0 C2.0625 0.4375 2.0625 0.4375 4 1 C4.41277905 31.5392995 4.41277905 31.5392995 2 43 C-3.08290212 37.91709788 -1.13017266 26.19268859 -1.13671875 19.50585938 C-1.13357666 18.50462036 -1.13357666 18.50462036 -1.13037109 17.4831543 C-1.12492759 15.40992191 -1.13039126 13.3368984 -1.13671875 11.26367188 C-1.13542969 9.95849609 -1.13414063 8.65332031 -1.1328125 7.30859375 C-1.13168457 6.12064209 -1.13055664 4.93269043 -1.12939453 3.70874023 C-1 1 -1 1 0 0 Z " fill="#C7AB65" transform="translate(19,49)"/>
<path d="M0 0 C2.0625 0.4375 2.0625 0.4375 4 1 C4.41277905 31.5392995 4.41277905 31.5392995 2 43 C-2.61378907 34.70384956 -1.15347498 23.62068055 -1.125 14.4375 C-1.12886719 13.15552734 -1.13273437 11.87355469 -1.13671875 10.55273438 C-1.13542969 9.33779297 -1.13414063 8.12285156 -1.1328125 6.87109375 C-1.13168457 5.76693115 -1.13055664 4.66276855 -1.12939453 3.52514648 C-1 1 -1 1 0 0 Z " fill="#BFA05D" transform="translate(98,49)"/>
<path d="M0 0 C0.33 0 0.66 0 1 0 C1 8.25 1 16.5 1 25 C13.70806754 25.38943547 13.70806754 25.38943547 24.484375 19.765625 C26.89665539 16.95544269 29.00125028 14.12304644 31 11 C32 14 32 14 28 28 C6.22 27.505 6.22 27.505 -16 27 C-16 26.67 -16 26.34 -16 26 C-10.72 26 -5.44 26 0 26 C0 17.42 0 8.84 0 0 Z " fill="#BE9F7E" transform="translate(365,70)"/>
<path d="M0 0 C14.19 0 28.38 0 43 0 C45 9 45 9 44 13 C43.31164062 12.16855469 43.31164062 12.16855469 42.609375 11.3203125 C41.99578125 10.59585938 41.3821875 9.87140625 40.75 9.125 C40.14671875 8.40570313 39.5434375 7.68640625 38.921875 6.9453125 C34.72540503 2.69766607 30.50715897 2.62001019 24.75 2.375 C22.1925 2.25125 19.635 2.1275 17 2 C17 9.92 17 17.84 17 26 C20.96 26 24.92 26 29 26 C29 26.33 29 26.66 29 27 C24.71 27 20.42 27 16 27 C16 18.42 16 9.84 16 1 C10.06 1.495 10.06 1.495 4 2 C2.68 1.34 1.36 0.68 0 0 Z " fill="#B08E81" transform="translate(349,42)"/>
<path d="M0 0 C2.4375 1.75 2.4375 1.75 4 4 C4.71284691 9.80461056 4.71284691 9.80461056 2.984375 12.703125 C-0.17713446 14.76930835 -3.54578469 14.31154096 -7.1875 14.1875 C-7.93708984 14.17396484 -8.68667969 14.16042969 -9.45898438 14.14648438 C-11.30629767 14.11118539 -13.15324066 14.05737917 -15 14 C-15 13.67 -15 13.34 -15 13 C-14.36191406 12.93941406 -13.72382813 12.87882812 -13.06640625 12.81640625 C-12.24011719 12.73261719 -11.41382813 12.64882812 -10.5625 12.5625 C-9.73878906 12.48128906 -8.91507812 12.40007812 -8.06640625 12.31640625 C-6.01337975 12.21069185 -6.01337975 12.21069185 -5 11 C-4.58667196 7.36271325 -4.79410297 5.39463597 -6.5 2.125 C-10.09665604 -0.93215763 -12.3593878 -0.22454575 -17 0 C-17.66 -0.66 -18.32 -1.32 -19 -2 C-12.188142 -4.27061933 -6.20077443 -3.33887854 0 0 Z " fill="#9A693A" transform="translate(520,61)"/>
<path d="M0 0 C1.21236328 0.02707031 1.21236328 0.02707031 2.44921875 0.0546875 C3.37154297 0.08949219 3.37154297 0.08949219 4.3125 0.125 C1.59321334 2.22031436 -1.17442912 4.09579058 -4.109375 5.875 C-4.96289551 6.39626465 -5.81641602 6.9175293 -6.69580078 7.45458984 C-7.60056152 8.0058252 -8.50532227 8.55706055 -9.4375 9.125 C-17.09299576 13.80431725 -24.56874902 18.64513441 -31.79980469 23.9609375 C-33.37780305 25.0908415 -35.02777645 26.11897831 -36.6875 27.125 C-37.6775 26.795 -38.6675 26.465 -39.6875 26.125 C-6.28744789 -0.18224487 -6.28744789 -0.18224487 0 0 Z " fill="#B28F56" transform="translate(45.6875,24.875)"/>
<path d="M0 0 C2.37625177 -0.10883596 4.74743976 -0.18766696 7.125 -0.25 C7.79015625 -0.28351562 8.4553125 -0.31703125 9.140625 -0.3515625 C14.28175552 -0.45236898 17.06679432 0.75539709 21 4 C23.31282587 7.46923881 23.42478586 8.92205575 23 13 C21.9375 14.875 21.9375 14.875 20 16 C16.3125 16.1875 16.3125 16.1875 13 16 C13.11859375 15.40832031 13.2371875 14.81664063 13.359375 14.20703125 C14.02401312 10.13279957 14.35168475 7.74924143 12.5625 3.9375 C8.89490206 1.16443814 6.53916776 1.78036285 2 2 C1.34 1.34 0.68 0.68 0 0 Z " fill="#E8D897" transform="translate(322,59)"/>
<path d="M0 0 C9.57 0 19.14 0 29 0 C29.495 0.99 29.495 0.99 30 2 C27.20965739 3.3951713 24.92774028 3.11955162 21.80615234 3.11352539 C20.50495453 3.11344986 19.20375671 3.11337433 17.86312866 3.11329651 C16.43739789 3.10818947 15.0116675 3.10297347 13.5859375 3.09765625 C12.13148039 3.09579147 10.67702266 3.09436785 9.2225647 3.09336853 C5.39207224 3.08954805 1.56161763 3.07972176 -2.26885986 3.06866455 C-6.17663053 3.05844035 -10.08440731 3.05386874 -13.9921875 3.04882812 C-21.6614756 3.03809908 -29.3307325 3.02102828 -37 3 C-37 2.67 -37 2.34 -37 2 C-24.79 1.67 -12.58 1.34 0 1 C0 0.67 0 0.34 0 0 Z " fill="#96683E" transform="translate(83,96)"/>
<path d="M0 0 C2.5625 1.6875 2.5625 1.6875 4 3 C2.906875 2.979375 1.81375 2.95875 0.6875 2.9375 C-2.94384191 2.81455548 -2.94384191 2.81455548 -6 4 C-6.99 3.67 -7.98 3.34 -9 3 C-10.66458673 2.90691456 -12.33281997 2.87003815 -14 2.875 C-14.86625 2.87242188 -15.7325 2.86984375 -16.625 2.8671875 C-19.15011695 2.90405795 -19.15011695 2.90405795 -22 4 C-24.3406065 3.72230092 -26.67624308 3.39460023 -29 3 C-20.38222093 -4.54055668 -10.05002704 -4.38331238 0 0 Z " fill="#9D713E" transform="translate(72,22)"/>
<path d="M0 0 C6.99702236 0.55976179 11.28637123 2.82074021 15.8125 8.125 C18.68372304 11.89860743 19.12216008 13.47151374 19.0625 18.125 C19.05347656 19.03507812 19.04445313 19.94515625 19.03515625 20.8828125 C19.02355469 21.58148438 19.01195313 22.28015625 19 23 C18.34 23.33 17.68 23.66 17 24 C16.84144531 23.19175781 16.68289062 22.38351563 16.51953125 21.55078125 C14.7680349 13.1079925 14.7680349 13.1079925 9 7 C6.05106307 5.22568165 3.06318664 3.56829817 0 2 C0 1.34 0 0.68 0 0 Z " fill="#BE9F5F" transform="translate(54,50)"/>
<path d="M0 0 C4.46321565 0.52411061 8.30099267 1.305901 12.4375 3.0625 C13.30246094 3.42472656 14.16742188 3.78695312 15.05859375 4.16015625 C15.69925781 4.43730469 16.33992188 4.71445312 17 5 C16.01 5.33 15.02 5.66 14 6 C13.67 6.66 13.34 7.32 13 8 C11.5414128 7.35474023 10.08313863 6.7087728 8.625 6.0625 C7.81289063 5.70285156 7.00078125 5.34320313 6.1640625 4.97265625 C4.76316215 4.3430097 3.37374716 3.68687358 2 3 C2.55410367 13.17160927 2.55410367 13.17160927 5 23 C4.34 23.66 3.68 24.32 3 25 C-0.33530434 16.56247415 -0.32177688 8.93824669 0 0 Z " fill="#8D5C34" transform="translate(40,44)"/>
<path d="M0 0 C5.62558863 2.92999408 10.6121841 6.37284869 15 11 C15 11.66 15 12.32 15 13 C9.96893223 13.68217868 7.04648178 11.36519718 3.1875 8.5 C2.59001953 8.07074219 1.99253906 7.64148437 1.37695312 7.19921875 C-0.08962611 6.1432817 -1.54587804 5.07302704 -3 4 C-2.01 2.68 -1.02 1.36 0 0 Z " fill="#8D5B2B" transform="translate(98,39)"/>
<path d="M0 0 C1.98 0.495 1.98 0.495 4 1 C4 10.24 4 19.48 4 29 C3.67 29 3.34 29 3 29 C2.96241577 28.15236084 2.96241577 28.15236084 2.92407227 27.28759766 C2.80820044 24.73316258 2.68543463 22.1791045 2.5625 19.625 C2.52318359 18.73554687 2.48386719 17.84609375 2.44335938 16.9296875 C2.38051758 15.65351562 2.38051758 15.65351562 2.31640625 14.3515625 C2.27974854 13.56604004 2.24309082 12.78051758 2.20532227 11.97119141 C2.109109 9.92476504 2.109109 9.92476504 1 8 C0.67 15.59 0.34 23.18 0 31 C-0.33 31 -0.66 31 -1 31 C-1.02465622 26.74585377 -1.04283899 22.49174502 -1.05493164 18.23754883 C-1.05997101 16.78929927 -1.06680253 15.34105483 -1.07543945 13.89282227 C-1.08752247 11.81525412 -1.09323211 9.73775303 -1.09765625 7.66015625 C-1.10289307 6.40855713 -1.10812988 5.15695801 -1.11352539 3.86743164 C-1 1 -1 1 0 0 Z " fill="#92623C" transform="translate(19,49)"/>
<path d="M0 0 C1.98 0.495 1.98 0.495 4 1 C4 10.24 4 19.48 4 29 C3.67 29 3.34 29 3 29 C3 21.08 3 13.16 3 5 C2.34 5 1.68 5 1 5 C0.67 12.92 0.34 20.84 0 29 C-0.33 29 -0.66 29 -1 29 C-1.02465881 25.03069011 -1.04284023 21.06140966 -1.05493164 17.09204102 C-1.05997057 15.74079614 -1.06680177 14.38955674 -1.07543945 13.03833008 C-1.08752419 11.09979566 -1.09269828 9.161222 -1.09765625 7.22265625 C-1.10289307 6.05484619 -1.10812988 4.88703613 -1.11352539 3.68383789 C-1 1 -1 1 0 0 Z " fill="#916137" transform="translate(98,49)"/>
<path d="M0 0 C2.27864583 0.06510417 4.55729167 0.13020833 6.8359375 0.1953125 C6.8359375 4.1553125 6.8359375 8.1153125 6.8359375 12.1953125 C5.5159375 11.8653125 4.1959375 11.5353125 2.8359375 11.1953125 C2.8359375 8.2253125 2.8359375 5.2553125 2.8359375 2.1953125 C1.5159375 2.5253125 0.1959375 2.8553125 -1.1640625 3.1953125 C-1.4940625 4.5153125 -1.8240625 5.8353125 -2.1640625 7.1953125 C-2.8240625 7.1953125 -3.4840625 7.1953125 -4.1640625 7.1953125 C-4.2890625 4.8203125 -4.2890625 4.8203125 -4.1640625 2.1953125 C-2.1640625 0.1953125 -2.1640625 0.1953125 0 0 Z " fill="#8A5846" transform="translate(85.1640625,16.8046875)"/>
<path d="M0 0 C1.81624092 1.81624092 3.55228347 3.6289895 5.25 5.5625 C8.56824082 8.503668 10.72956615 9.07892603 15 10 C15 10.33 15 10.66 15 11 C7.64825194 11.55253221 2.488417 10.51064108 -4 7 C-2.68 4.69 -1.36 2.38 0 0 Z " fill="#B28B59" transform="translate(454,86)"/>
<path d="M0 0 C0.61875 0.721875 1.2375 1.44375 1.875 2.1875 C7.66004755 7.93977107 14.9973335 10.55540742 23 11 C22.67 11.66 22.34 12.32 22 13 C12.29161633 13.62188935 12.29161633 13.62188935 7.625 11.375 C4.68165743 8.71197577 2.32885292 6.21929668 0 3 C0 2.01 0 1.02 0 0 Z " fill="#AA844C" transform="translate(44,67)"/>
<path d="M0 0 C2.56314499 -0.08132187 5.12368418 -0.14064175 7.6875 -0.1875 C8.40873047 -0.21263672 9.12996094 -0.23777344 9.87304688 -0.26367188 C14.47589338 -0.32672457 17.30307233 0.22183542 21 3 C19.8141763 6.37503669 18.72426311 8.64722731 16 11 C15.566875 9.88625 15.13375 8.7725 14.6875 7.625 C13.30088881 3.82487666 13.30088881 3.82487666 10 2 C7.49103314 1.54398739 7.49103314 1.54398739 4.8125 1.375 C3.91144531 1.30023438 3.01039063 1.22546875 2.08203125 1.1484375 C1.39496094 1.09945312 0.70789063 1.05046875 0 1 C0 0.67 0 0.34 0 0 Z " fill="#AA8052" transform="translate(459,59)"/>
<path d="M0 0 C4.29 0 8.58 0 13 0 C15.27678571 8.03571429 15.27678571 8.03571429 14 12 C13.57589844 11.45730469 13.15179688 10.91460937 12.71484375 10.35546875 C8.81040965 5.59291727 5.87293936 2.91769449 0 1 C0 0.67 0 0.34 0 0 Z " fill="#CFB47C" transform="translate(379,43)"/>
<path d="M0 0 C0.33 0 0.66 0 1 0 C1 4.95 1 9.9 1 15 C-0.46484375 13.73046875 -1.9296875 12.4609375 -3.39453125 11.19140625 C-5.10712971 9.79128769 -5.10712971 9.79128769 -8 9 C-8 8.01 -8 7.02 -8 6 C-7.05125 5.566875 -6.1025 5.13375 -5.125 4.6875 C-1.79958063 3.20697799 -1.79958063 3.20697799 0 0 Z " fill="#D3BA7F" transform="translate(386,62)"/>
<path d="M0 0 C0.99 0.495 0.99 0.495 2 1 C2.33 10.24 2.66 19.48 3 29 C2.01 29 1.02 29 0 29 C0 19.43 0 9.86 0 0 Z " fill="#DABE82" transform="translate(298,67)"/>
<path d="M0 0 C0.66 0.33 1.32 0.66 2 1 C0.65432077 5.03703769 -1.36652273 5.91101516 -4.875 8.25 C-6.47988281 9.34054688 -6.47988281 9.34054688 -8.1171875 10.453125 C-9.54417969 11.21882813 -9.54417969 11.21882813 -11 12 C-11.99 11.67 -12.98 11.34 -14 11 C-9.38 7.37 -4.76 3.74 0 0 Z " fill="#8B5938" transform="translate(20,40)"/>
<path d="M0 0 C1.75 1.625 1.75 1.625 3 3 C2.67 3.99 2.34 4.98 2 6 C-0.91280837 4.69425831 -2.80294493 3.2925792 -5 1 C-5.99 0.34 -6.98 -0.32 -8 -1 C-4.5869878 -2.21893293 -3.03675594 -1.95919738 0 0 Z " fill="#8B5930" transform="translate(77,81)"/>
<path d="M0 0 C4.29 0.66 8.58 1.32 13 2 C12.67 2.66 12.34 3.32 12 4 C8.37 4 4.74 4 1 4 C0.67 2.68 0.34 1.36 0 0 Z " fill="#B28E51" transform="translate(54,76)"/>
<path d="M0 0 C-1.25535985 3.76607955 -2.52883585 4.26441793 -6 6 C-6.99 6 -7.98 6 -9 6 C-8.75 4.125 -8.75 4.125 -8 2 C-5.06004981 -0.02755186 -3.72295997 0 0 0 Z " fill="#BA9B5F" transform="translate(94,6)"/>
<path d="M0 0 C1.92578125 0.015625 1.92578125 0.015625 4.3125 0.25 C5.48232422 0.35054687 5.48232422 0.35054687 6.67578125 0.453125 C9.3820332 1.08989016 10.90085345 2.21308349 13 4 C11.22992286 4.08114106 9.45877902 4.13925505 7.6875 4.1875 C6.70136719 4.22230469 5.71523437 4.25710937 4.69921875 4.29296875 C2 4 2 4 0.14453125 2.48828125 C-0.23316406 1.99714844 -0.61085938 1.50601562 -1 1 C-0.67 0.67 -0.34 0.34 0 0 Z " fill="#AE8951" transform="translate(69,24)"/>
<path d="M0 0 C2.80045623 3.14591933 3.35261589 5.067064 3.1875 9.25 C3.16042969 10.14203125 3.13335937 11.0340625 3.10546875 11.953125 C3.07066406 12.62859375 3.03585938 13.3040625 3 14 C2.01 14.495 2.01 14.495 1 15 C0.83105557 13.25021843 0.66493691 11.50016388 0.5 9.75 C0.4071875 8.77546875 0.314375 7.8009375 0.21875 6.796875 C0.04199832 4.53697847 0 2.26679807 0 0 Z " fill="#B28E53" transform="translate(70,59)"/>
<path d="M0 0 C2.5 1.375 2.5 1.375 5 3 C5 3.66 5 4.32 5 5 C2.6875 5.6875 2.6875 5.6875 0 6 C-1.8125 4.5625 -1.8125 4.5625 -3 3 C-2.01 2.01 -1.02 1.02 0 0 Z " fill="#9C703A" transform="translate(98,39)"/>
<path d="M0 0 C0.33 0 0.66 0 1 0 C1 1.98 1 3.96 1 6 C-2.31070838 7.00109515 -5.30084769 7.10356134 -8.75 7.0625 C-9.73484375 7.05347656 -10.7196875 7.04445313 -11.734375 7.03515625 C-12.48203125 7.02355469 -13.2296875 7.01195313 -14 7 C-14 6.67 -14 6.34 -14 6 C-13.32453125 5.98582031 -12.6490625 5.97164063 -11.953125 5.95703125 C-6.06856829 5.76941569 -6.06856829 5.76941569 -1.4375 2.4375 C-0.7259375 1.2309375 -0.7259375 1.2309375 0 0 Z " fill="#A07641" transform="translate(72,74)"/>
<path d="M0 0 C1.34173403 0.92543709 2.67320159 1.86577405 4 2.8125 C5.11375 3.59560547 5.11375 3.59560547 6.25 4.39453125 C6.8275 4.92433594 7.405 5.45414062 8 6 C8 6.99 8 7.98 8 9 C4.20620942 7.50958227 2.31656242 5.30937488 0 2 C0 1.34 0 0.68 0 0 Z " fill="#C9B079" transform="translate(58,65)"/>
<path d="M0 0 C1.09054688 0.02320312 2.18109375 0.04640625 3.3046875 0.0703125 C4.40039062 0.08835937 5.49609375 0.10640625 6.625 0.125 C7.46804687 0.14820312 8.31109375 0.17140625 9.1796875 0.1953125 C4.01152064 2.86850226 0.97809877 3.17994838 -4.8203125 2.1953125 C-2.8203125 0.1953125 -2.8203125 0.1953125 0 0 Z " fill="#A88047" transform="translate(47.8203125,22.8046875)"/>
<path d="M0 0 C1.99954746 -0.04254356 4.00041636 -0.04080783 6 0 C7 1 7 1 7.0625 4.5625 C7.041875 5.696875 7.02125 6.83125 7 8 C6.01 8.495 6.01 8.495 5 9 C4.87625 7.329375 4.87625 7.329375 4.75 5.625 C4.42126213 1.94246056 4.42126213 1.94246056 1.9375 0.5625 C1.298125 0.376875 0.65875 0.19125 0 0 Z " fill="#AB8446" transform="translate(84,18)"/>
<path d="M0 0 C2.01822917 0.06510417 4.03645833 0.13020833 6.0546875 0.1953125 C5.7246875 0.8553125 5.3946875 1.5153125 5.0546875 2.1953125 C2.0846875 1.7003125 2.0846875 1.7003125 -0.9453125 1.1953125 C-1.2753125 3.1753125 -1.6053125 5.1553125 -1.9453125 7.1953125 C-2.6053125 7.1953125 -3.2653125 7.1953125 -3.9453125 7.1953125 C-4.0703125 4.8203125 -4.0703125 4.8203125 -3.9453125 2.1953125 C-1.9453125 0.1953125 -1.9453125 0.1953125 0 0 Z " fill="#92623A" transform="translate(84.9453125,16.8046875)"/>
<path d="M0 0 C0.99 0 1.98 0 3 0 C2.67 3.3 2.34 6.6 2 10 C0 8 0 8 -0.1953125 6.0546875 C-0.13020833 4.03645833 -0.06510417 2.01822917 0 0 Z " fill="#A07644" transform="translate(19,82)"/>
<path d="M0 0 C1.96301592 3.50538557 2.95902388 7.13351728 4 11 C3.34 11.66 2.68 12.32 2 13 C0.54815522 8.46298506 -0.23509196 4.81938524 0 0 Z " fill="#93653A" transform="translate(41,56)"/>
<path d="M0 0 C6.75 0.75 6.75 0.75 9 3 C6.08517222 3.80967438 4.53886783 4.21845993 1.6875 3.0625 C1.130625 2.711875 0.57375 2.36125 0 2 C0 1.34 0 0.68 0 0 Z " fill="#AD8750" transform="translate(54,50)"/>
<path d="M0 0 C0 0.99 0 1.98 0 3 C-3.96 4.98 -3.96 4.98 -8 7 C-5.73826764 2.47653527 -4.46594067 1.94171334 0 0 Z " fill="#926043" transform="translate(524,89)"/>
<path d="M0 0 C3.3 0.33 6.6 0.66 10 1 C10 1.33 10 1.66 10 2 C5.545 2.495 5.545 2.495 1 3 C0.67 2.01 0.34 1.02 0 0 Z " fill="#A8806E" transform="translate(422,94)"/>
<path d="M0 0 C2.875 -0.1875 2.875 -0.1875 6 0 C6.66 0.99 7.32 1.98 8 3 C6.25 3.75 6.25 3.75 4 4 C1.75 2.0625 1.75 2.0625 0 0 Z " fill="#B7955C" transform="translate(59,53)"/>
<path d="M0 0 C-1.98 1.32 -3.96 2.64 -6 4 C-6.33 2.68 -6.66 1.36 -7 0 C-2.25 -1.125 -2.25 -1.125 0 0 Z " fill="#BA9A5D" transform="translate(45,28)"/>
<path d="M0 0 C3.63 0.33 7.26 0.66 11 1 C11 1.33 11 1.66 11 2 C5.04296875 3.07421875 5.04296875 3.07421875 3 3 C2.01 2.01 1.02 1.02 0 0 Z " fill="#B8985A" transform="translate(72,27)"/>
</svg>
