<?xml version="1.0" standalone="no"?>
<!DOCTYPE svg PUBLIC "-//W3C//DTD SVG 20010904//EN"
 "http://www.w3.org/TR/2001/REC-SVG-20010904/DTD/svg10.dtd">
<svg version="1.0" xmlns="http://www.w3.org/2000/svg"
 width="2048.000000pt" height="2048.000000pt" viewBox="0 0 2048.000000 2048.000000"
 preserveAspectRatio="xMidYMid meet">

<g transform="translate(0.000000,2048.000000) scale(0.100000,-0.100000)"
fill="#000000" stroke="none">
<path d="M0 10240 l0 -10240 10240 0 10240 0 0 10240 0 10240 -10240 0 -10240
0 0 -10240z m9070 2308 c21 -46 135 -317 253 -603 192 -462 456 -1095 725
-1735 49 -118 138 -330 197 -470 253 -605 479 -1130 513 -1190 71 -129 188
-218 337 -258 46 -12 64 -21 60 -30 -3 -8 -5 -20 -5 -28 0 -12 -94 -14 -657
-12 l-658 3 -3 27 c-4 30 -1 31 93 43 105 14 189 63 224 132 28 55 10 150 -61
333 -62 157 -428 1051 -439 1073 -9 16 -61 17 -863 17 -966 0 -915 4 -1047
-81 -65 -42 -177 -152 -207 -201 -14 -23 -52 -40 -52 -23 0 3 44 119 99 258
54 138 109 280 122 315 19 49 28 62 45 62 15 0 24 -10 33 -37 21 -68 32 -75
128 -84 123 -11 1643 -11 1643 0 0 9 -300 758 -435 1086 -48 116 -123 301
-168 411 l-82 202 -63 -182 c-35 -99 -88 -251 -117 -336 -35 -99 -51 -158 -45
-164 6 -6 72 -12 148 -16 l137 -5 3 -56 3 -56 -282 -6 c-156 -4 -286 -4 -290
0 -4 5 8 46 26 93 605 1544 627 1600 640 1600 4 0 24 -37 45 -82z m518 75
c-30 -8 -20 -22 15 -21 17 1 59 1 92 -1 44 -2 53 -5 35 -10 l-25 -7 25 -7 c14
-3 27 -2 28 3 2 6 11 10 20 10 15 1 14 3 -3 16 -19 15 -16 16 40 10 84 -9 110
-17 94 -27 -10 -6 -7 -8 9 -6 15 1 21 6 17 17 -3 9 0 8 10 -4 8 -10 12 -23 9
-27 -3 -5 -1 -9 4 -9 6 0 13 -12 16 -27 4 -16 20 -55 36 -88 16 -33 77 -172
135 -310 58 -137 114 -268 125 -290 10 -22 48 -110 83 -195 113 -271 367 -863
512 -1195 119 -272 218 -502 237 -552 11 -29 23 -53 27 -53 8 0 51 90 51 104
0 7 144 338 238 546 38 85 103 229 142 320 40 91 136 307 213 480 77 173 159
360 183 414 24 54 49 105 55 113 6 7 9 13 6 13 -3 0 6 26 20 58 36 79 158 360
200 460 20 47 41 82 49 82 8 0 14 4 14 9 0 5 3 18 6 28 3 10 -2 7 -10 -7 -18
-30 -21 -21 -4 14 9 20 14 23 25 15 10 -9 13 -8 13 5 0 9 5 16 10 16 6 0 10
-9 10 -20 0 -11 4 -20 10 -20 5 0 17 -16 26 -36 9 -20 23 -38 31 -41 8 -3 13
-21 13 -44 0 -21 5 -39 10 -39 6 0 10 -18 10 -40 0 -36 -2 -40 -25 -40 -22 0
-25 -4 -25 -40 l0 -40 50 0 50 0 0 -40 c0 -22 -4 -40 -10 -40 -5 0 -10 7 -10
15 0 11 -11 15 -40 15 l-40 0 0 -70 0 -70 40 0 c29 0 40 4 40 15 0 8 5 15 10
15 6 0 10 -88 10 -244 l0 -244 32 -32 c18 -19 27 -35 21 -38 -5 -4 -13 -58
-16 -121 -4 -63 -11 -117 -16 -120 -5 -3 -12 -41 -16 -83 l-7 -78 31 0 c17 0
31 5 31 12 0 6 3 8 8 4 4 -4 7 -11 7 -14 0 -17 30 -78 43 -87 17 -14 32 -71
43 -175 12 -101 19 -115 19 -35 l0 59 20 -39 c24 -47 23 -43 5 -47 -13 -3 -13
-6 0 -32 10 -18 15 -57 15 -109 0 -133 15 -76 21 81 3 81 5 -215 5 -658 0
-443 -3 -785 -6 -760 l-6 45 -7 -65 c-4 -36 -6 -72 -5 -80 5 -58 -4 -180 -14
-180 -8 0 -10 34 -6 123 3 75 2 103 -2 72 -5 -27 -9 -100 -9 -161 -1 -90 -4
-113 -16 -118 -10 -4 -15 -20 -15 -50 0 -26 -5 -46 -12 -49 -10 -4 -10 -8 0
-15 15 -10 13 -45 -3 -46 -5 -1 -11 18 -13 42 -2 28 -8 42 -18 42 -11 0 -14
-23 -14 -130 l0 -130 24 0 c14 0 27 -4 30 -9 3 -5 14 -7 24 -5 18 5 52 -40 52
-68 -1 -7 -7 1 -14 17 -12 30 -13 29 -12 -20 1 -27 7 -56 14 -63 6 -7 13 -28
13 -45 1 -18 3 -41 4 -52 1 -11 2 -29 3 -40 2 -17 4 -18 12 -5 5 8 10 11 10 5
0 -16 -16 -37 -26 -34 -5 1 -17 -13 -27 -32 l-18 -34 6 53 c4 35 2 58 -5 67
-15 18 -6 45 15 45 8 0 15 5 15 10 0 6 -7 10 -15 10 -8 0 -15 5 -15 11 0 6 -7
4 -15 -5 -8 -8 -15 -28 -15 -45 0 -16 -4 -33 -10 -36 -5 -3 -10 -28 -10 -56 0
-48 -1 -49 -30 -49 -30 0 -30 0 -30 -59 0 -33 -4 -63 -10 -66 -5 -3 -10 -17
-10 -31 0 -21 -4 -24 -40 -24 -29 0 -40 -4 -40 -15 0 -11 -11 -15 -40 -15 -29
0 -40 -4 -40 -15 0 -13 -14 -14 -80 -11 -44 2 -82 0 -85 -4 -2 -4 -38 -6 -80
-5 -41 1 -75 -2 -75 -6 0 -5 -15 -9 -32 -9 -39 0 -63 -13 -54 -29 5 -8 -36
-11 -147 -11 l-155 0 -4 25 c-3 14 0 25 6 26 6 1 25 3 41 4 17 2 57 6 90 9 33
4 82 13 109 21 26 8 53 12 59 8 6 -4 7 -1 2 7 -6 10 -1 11 21 6 19 -4 24 -3
15 2 -16 11 3 27 19 17 6 -4 10 -3 8 2 -1 4 23 33 53 63 60 60 87 125 111 260
11 68 25 3432 13 3478 -5 19 -9 21 -26 12 -11 -6 -18 -17 -16 -23 4 -12 -52
-129 -64 -135 -4 -2 -4 -12 -1 -24 3 -14 1 -19 -6 -14 -8 4 -10 2 -6 -7 3 -8
-1 -21 -8 -28 -7 -8 -14 -20 -15 -26 -1 -6 -14 -36 -28 -66 -14 -31 -25 -58
-25 -61 0 -5 -34 -80 -99 -221 -21 -44 -53 -114 -71 -155 -60 -136 -170 -384
-192 -430 -11 -25 -49 -110 -85 -190 -35 -79 -70 -158 -78 -175 -98 -212 -515
-1140 -515 -1147 0 -4 -15 -8 -33 -8 -49 0 -29 -40 -421 865 -65 149 -131 299
-147 335 -48 108 -339 789 -374 875 -18 44 -53 127 -79 184 -25 57 -43 107
-40 112 3 5 1 9 -4 9 -5 0 -38 64 -72 143 -34 78 -73 166 -86 196 -13 29 -21
57 -18 62 3 5 1 9 -4 9 -8 0 -20 26 -58 125 -4 11 -6 23 -6 28 1 4 -2 7 -7 7
-8 0 -53 98 -53 117 0 4 -7 17 -14 28 -8 11 -14 27 -14 37 0 10 -4 18 -9 18
-9 0 -47 100 -42 109 2 2 -2 7 -7 10 -5 3 -33 51 -61 106 -28 55 -63 115 -77
133 l-27 32 129 -1 c71 -1 121 -3 112 -6z m300 0 c-10 -2 -26 -2 -35 0 -10 3
-2 5 17 5 19 0 27 -2 18 -5z m2499 -29 c-8 -8 -48 -13 -43 -6 2 4 14 8 26 9
12 1 20 0 17 -3z m-4074 -3061 c-56 -141 -288 -760 -322 -859 -80 -234 -12
-343 240 -383 35 -6 67 -11 72 -11 4 0 7 -14 7 -30 l0 -30 -627 2 -627 3 0 29
c0 28 3 30 77 47 145 35 267 118 334 231 36 60 201 440 341 788 50 124 98 242
106 263 l16 37 209 0 208 0 -34 -87z m4434 -395 c-2 -13 -4 -5 -4 17 -1 22 1
32 4 23 2 -10 2 -28 0 -40z m0 -200 c-3 -8 -6 -5 -6 6 -1 11 2 17 5 13 3 -3 4
-12 1 -19z m-87 -272 c0 -16 -18 -31 -27 -22 -8 8 5 36 17 36 5 0 10 -6 10
-14z m90 -56 c0 -5 -2 -10 -4 -10 -3 0 -8 5 -11 10 -3 6 -1 10 4 10 6 0 11 -4
11 -10z m-66 -44 c6 -24 4 -27 -9 -22 -9 3 -23 6 -31 6 -8 0 -14 7 -14 15 0 8
7 15 15 15 8 0 15 8 15 17 0 24 16 4 24 -31z m63 2 c-3 -8 -6 -5 -6 6 -1 11 2
17 5 13 3 -3 4 -12 1 -19z m0 -80 c-3 -7 -5 -2 -5 12 0 14 2 19 5 13 2 -7 2
-19 0 -25z m0 -110 c-3 -7 -5 -2 -5 12 0 14 2 19 5 13 2 -7 2 -19 0 -25z m13
-187 c0 -6 -4 -13 -10 -16 -5 -3 -10 1 -10 9 0 9 5 16 10 16 6 0 10 -4 10 -9z
m-10 -44 c0 14 26 11 42 -5 9 -9 9 -12 0 -12 -7 0 -12 5 -12 11 0 5 -5 7 -11
4 -7 -5 -5 -11 4 -18 26 -21 30 -55 8 -66 -16 -9 -21 -7 -27 12 -4 12 -7 27
-6 33 1 7 -3 14 -10 17 -8 3 -14 -5 -14 -19 -1 -13 2 -24 7 -24 5 0 9 -9 9
-20 0 -11 -5 -20 -11 -20 -5 0 -8 4 -4 9 3 5 -2 17 -11 25 -11 12 -14 25 -9
44 8 31 26 46 37 29 6 -9 8 -9 8 0z m72 -92 c-2 -14 -6 -25 -8 -25 -2 0 -4 11
-4 25 0 14 4 25 9 25 4 0 6 -11 3 -25z m31 -20 c4 -8 1 -17 -6 -21 -7 -4 -9
-4 -5 1 4 4 3 14 -3 22 -7 8 -8 13 -1 13 5 0 12 -7 15 -15z m-338 -125 c3 -5
-3 -10 -14 -10 -12 0 -21 5 -21 10 0 6 6 10 14 10 8 0 18 -4 21 -10z m-468
-46 c-3 -3 -12 -4 -19 -1 -8 3 -5 6 6 6 11 1 17 -2 13 -5z m181 -1 c-10 -2
-28 -2 -40 0 -13 2 -5 4 17 4 22 1 32 -1 23 -4z"/>
<path d="M12723 10360 c0 -25 2 -35 4 -22 2 12 2 32 0 45 -2 12 -4 2 -4 -23z"/>
<path d="M12728 10190 c3 -58 6 -107 8 -109 7 -8 2 153 -6 184 -4 17 -5 -17
-2 -75z"/>
<path d="M12733 9920 c0 -47 2 -66 4 -42 2 23 2 61 0 85 -2 23 -4 4 -4 -43z"/>
<path d="M12723 9435 c0 -44 2 -61 4 -37 2 23 2 59 0 80 -2 20 -4 1 -4 -43z"/>
<path d="M12552 8212 c-25 -51 -25 -52 2 -52 24 0 26 4 26 40 0 47 -10 51 -28
12z"/>
<path d="M12400 7992 c0 -4 16 -8 35 -8 19 0 35 4 35 8 0 4 -16 8 -35 8 -19 0
-35 -4 -35 -8z"/>
<path d="M12050 7930 c-9 -6 -10 -10 -3 -10 6 0 15 5 18 10 8 12 4 12 -15 0z"/>
<path d="M12125 7930 c-3 -5 3 -10 14 -10 12 0 21 5 21 10 0 6 -6 10 -14 10
-8 0 -18 -4 -21 -10z"/>
<path d="M11740 7900 c-13 -8 -12 -10 3 -10 9 0 17 5 17 10 0 12 -1 12 -20 0z"/>
<path d="M11706 7885 c4 -8 8 -15 10 -15 2 0 4 7 4 15 0 8 -4 15 -10 15 -5 0
-7 -7 -4 -15z"/>
<path d="M11958 7883 c7 -3 16 -2 19 1 4 3 -2 6 -13 5 -11 0 -14 -3 -6 -6z"/>
</g>
</svg>
