<?xml version="1.0" encoding="UTF-8"?>
<svg version="1.1" xmlns="http://www.w3.org/2000/svg" width="538" height="108">
<path d="M0 0 C177.54 0 355.08 0 538 0 C538 35.64 538 71.28 538 108 C360.46 108 182.92 108 0 108 C0 72.36 0 36.72 0 0 Z " fill="#FDFDFD" transform="translate(0,0)"/>
<path d="M0 0 C0.79470703 -0.01224609 1.58941406 -0.02449219 2.40820312 -0.03710938 C3.18744141 -0.03904297 3.96667969 -0.04097656 4.76953125 -0.04296875 C5.47311768 -0.04707764 6.1767041 -0.05118652 6.90161133 -0.05541992 C9.84049528 0.25689339 12.41697011 1.1850236 15.1875 2.1875 C15.21255615 3.17145752 15.2376123 4.15541504 15.26342773 5.16918945 C15.3576082 8.82020057 15.4578029 12.47102616 15.55981445 16.12182617 C15.60312305 17.70186015 15.64480106 19.28193969 15.68481445 20.86206055 C15.74261583 23.13344048 15.8062816 25.40459189 15.87109375 27.67578125 C15.88780624 28.38213211 15.90451874 29.08848297 15.92173767 29.8162384 C16.0134747 32.8539824 16.21957686 35.28373058 17.1875 38.1875 C16.12789063 38.10371094 15.06828125 38.01992187 13.9765625 37.93359375 C12.58856375 37.83043168 11.20054165 37.72758337 9.8125 37.625 C9.11382812 37.56892578 8.41515625 37.51285156 7.6953125 37.45507812 C3.82221135 37.07250096 3.82221135 37.07250096 0.1875 38.1875 C-6.25851568 38.68928565 -12.39736659 39.14979274 -17.8125 35.1875 C-23.47853448 29.3821368 -24.17857702 25.42253977 -24.08203125 17.453125 C-23.63359536 12.01990171 -22.03495453 9.15059364 -17.87109375 5.47265625 C-11.82916331 0.74370517 -7.49837735 0.00599391 0 0 Z " fill="#0D0D0D" transform="translate(434.8125,61.8125)"/>
<path d="M0 0 C7.26 0 14.52 0 22 0 C19 2 19 2 17 2 C17 10.25 17 18.5 17 27 C25.58 27 34.16 27 43 27 C42.9175 23.101875 42.835 19.20375 42.75 15.1875 C42.72631348 13.34901489 42.72631348 13.34901489 42.70214844 11.47338867 C42.65622559 10.02283081 42.65622559 10.02283081 42.609375 8.54296875 C42.58842773 7.55321045 42.56748047 6.56345215 42.54589844 5.54370117 C42.17202394 2.44538037 42.17202394 2.44538037 38 0 C44.93 0 51.86 0 59 0 C57.68 0.99 56.36 1.98 55 3 C54.42273684 5.26867432 54.42273684 5.26867432 54.54589844 7.83862305 C54.54620056 8.8194133 54.54650269 9.80020355 54.54681396 10.81071472 C54.56745911 11.86704605 54.58810425 12.92337738 54.609375 14.01171875 C54.61786469 15.63676079 54.61786469 15.63676079 54.62652588 17.29463196 C54.64894034 20.7593683 54.69914782 24.22307553 54.75 27.6875 C54.77005836 30.03449029 54.78831028 32.38149676 54.8046875 34.72851562 C54.84882169 40.486029 54.91578459 46.24294099 55 52 C56.65 52.66 58.3 53.32 60 54 C60 54.33 60 54.66 60 55 C52.74 55 45.48 55 38 55 C39.32 54.01 40.64 53.02 42 52 C42.64070996 49.49925826 42.64070996 49.49925826 42.609375 46.67578125 C42.63999023 45.74934814 42.67060547 44.82291504 42.70214844 43.8684082 C42.71793945 42.6949585 42.73373047 41.52150879 42.75 40.3125 C42.87375 34.7128125 42.87375 34.7128125 43 29 C34.42 29 25.84 29 17 29 C17 36.92 17 44.84 17 53 C18.65 53.33 20.3 53.66 22 54 C22 54.33 22 54.66 22 55 C14.74 55 7.48 55 0 55 C3 53 3 53 5 52 C5 35.83 5 19.66 5 3 C2.525 2.01 2.525 2.01 0 1 C0 0.67 0 0.34 0 0 Z " fill="#141414" transform="translate(133,45)"/>
<path d="M0 0 C4.29729909 2.775339 7.69861922 6.33473844 10 10.9375 C10.68655491 18.25324909 10.72469128 24.98686842 6 30.9375 C-0.08967528 36.58917079 -5.80281694 37.35473205 -13.953125 37.28515625 C-19.85144047 36.61214333 -23.44296113 33.61746299 -27.375 29.375 C-31.08539139 23.80941291 -31.77152843 19.59068025 -31 12.9375 C-29.44072956 6.99343549 -25.96775838 3.16480517 -20.765625 0.00390625 C-14.39728522 -2.4516824 -6.45207116 -2.26539387 0 0 Z " fill="#0D0D0D" transform="translate(228,63.0625)"/>
<path d="M0 0 C3.96 0 7.92 0 12 0 C12.33 1.65 12.66 3.3 13 5 C13.44988281 4.6390625 13.89976562 4.278125 14.36328125 3.90625 C19.33626042 0.31852955 23.36105646 -0.82148175 29.5 -0.57421875 C32.33620908 0.07722302 33.34127029 0.79186731 35.1875 3 C35.785625 3.99 36.38375 4.98 37 6 C37.60585938 5.566875 38.21171875 5.13375 38.8359375 4.6875 C44.19928242 1.12293845 48.28290666 -0.89701336 54.80078125 -0.45703125 C58.10621339 0.22988804 59.80686016 1.46418206 62 4 C63.93420639 7.92641319 64.29483808 11.26159004 64.4140625 15.61328125 C64.45273437 16.86044922 64.49140625 18.10761719 64.53125 19.39257812 C64.5621875 20.68615234 64.593125 21.97972656 64.625 23.3125 C64.66367187 24.62541016 64.70234375 25.93832031 64.7421875 27.29101562 C64.83633117 30.52720437 64.92196352 33.76338935 65 37 C61.37 37 57.74 37 54 37 C53.97494385 36.14245117 53.9498877 35.28490234 53.92407227 34.40136719 C53.82876588 31.2106563 53.72954249 28.02009781 53.62768555 24.82958984 C53.5844545 23.45040622 53.54277134 22.07117315 53.50268555 20.69189453 C53.44469597 18.70593062 53.38062277 16.72014731 53.31640625 14.734375 C53.26141968 12.94338379 53.26141968 12.94338379 53.20532227 11.11621094 C53.03791006 8.57536745 52.73682141 6.4228576 52 4 C47.9380279 3.67504223 45.47816631 3.76211863 41.79443359 5.59472656 C38.72829454 7.74648412 38.72829454 7.74648412 38.31884766 11.11621094 C38.35026855 12.31020508 38.38168945 13.50419922 38.4140625 14.734375 C38.43339844 16.02988281 38.45273437 17.32539062 38.47265625 18.66015625 C38.522785 20.02346165 38.57357464 21.38674289 38.625 22.75 C38.65510869 24.12884865 38.68248297 25.5077599 38.70703125 26.88671875 C38.77778674 30.25939731 38.87648198 33.62890827 39 37 C35.37 37 31.74 37 28 37 C27.97494385 36.10692139 27.9498877 35.21384277 27.92407227 34.29370117 C27.82889814 30.97814546 27.72966717 27.66276271 27.62768555 24.34741211 C27.58439207 22.91288997 27.54271301 21.47831816 27.50268555 20.04370117 C27.44484733 17.9808048 27.38119247 15.91815717 27.31640625 13.85546875 C27.27974854 12.61434326 27.24309082 11.37321777 27.20532227 10.09448242 C27.12855879 6.96446653 27.12855879 6.96446653 26 4 C22.18188883 3.69455111 19.40032749 3.85455903 15.78515625 5.16796875 C12.45412353 8.55506373 12.54957039 9.57747446 12.37890625 14.19140625 C12.40947676 16.64900939 12.47191052 19.10637678 12.5625 21.5625 C12.58119141 22.80708984 12.59988281 24.05167969 12.61914062 25.33398438 C12.65156498 31.7707894 12.65156498 31.7707894 14 38 C10.04 38 6.08 38 2 38 C2 26.12 2 14.24 2 2 C1.34 2 0.68 2 0 2 C0 1.34 0 0.68 0 0 Z " fill="#070707" transform="translate(245,62)"/>
<path d="M0 0 C14.19 0 28.38 0 43 0 C45 9 45 9 44 13 C43.45730469 12.36191406 42.91460937 11.72382812 42.35546875 11.06640625 C41.64003906 10.24011719 40.92460937 9.41382813 40.1875 8.5625 C39.47980469 7.73878906 38.77210938 6.91507813 38.04296875 6.06640625 C34.32261136 2.3033679 29.80676089 2.70392034 24.8125 2.4375 C22.234375 2.293125 19.65625 2.14875 17 2 C17 9.92 17 17.84 17 26 C27.06871668 26.31189467 27.06871668 26.31189467 35.9375 22.4375 C36.618125 21.633125 37.29875 20.82875 38 20 C38 24.95 38 29.9 38 35 C36.53515625 33.73046875 35.0703125 32.4609375 33.60546875 31.19140625 C30.17750842 28.64754275 26.43133016 28.72296348 22.3125 28.4375 C20.229375 28.293125 18.14625 28.14875 16 28 C16 36.25 16 44.5 16 53 C29.2413642 53.49116173 29.2413642 53.49116173 40.51953125 47.765625 C42.89063041 44.93782336 45.00794339 42.11258846 47 39 C48 42 48 42 44 56 C22.22 55.505 22.22 55.505 0 55 C1.65 53.68 3.3 52.36 5 51 C5.71414816 48.68103254 5.71414816 48.68103254 5.56762695 46.13964844 C5.5672493 45.17895447 5.56687164 44.2182605 5.56648254 43.22845459 C5.54067612 42.19915833 5.51486969 41.16986206 5.48828125 40.109375 C5.48120651 39.04962463 5.47413177 37.98987427 5.46684265 36.89801025 C5.43886336 33.51462084 5.37611521 30.13288884 5.3125 26.75 C5.28742184 24.45575307 5.26460784 22.1614802 5.24414062 19.8671875 C5.18902525 14.24422658 5.10536309 8.62223169 5 3 C2.525 2.01 2.525 2.01 0 1 C0 0.67 0 0.34 0 0 Z " fill="#000000" transform="translate(358,45)"/>
<path d="M0 0 C0.70382812 -0.03738281 1.40765625 -0.07476562 2.1328125 -0.11328125 C6.14337357 -0.18037242 8.54024077 0.20194082 11.703125 2.7734375 C14.52880558 5.6597922 15.16388314 6.36312692 15.5 10.3125 C15.25 13.375 15.25 13.375 14.06713867 15.0480957 C11.5925424 16.85508626 9.96955674 16.71841807 6.92578125 16.66796875 C5.89775391 16.65830078 4.86972656 16.64863281 3.81054688 16.63867188 C2.20276367 16.6009668 2.20276367 16.6009668 0.5625 16.5625 C-0.52095703 16.54896484 -1.60441406 16.53542969 -2.72070312 16.52148438 C-5.39763405 16.48610643 -8.07356838 16.43674189 -10.75 16.375 C-10.46345344 17.98056441 -10.16733454 19.58442241 -9.8671875 21.1875 C-9.70331543 22.08082031 -9.53944336 22.97414063 -9.37060547 23.89453125 C-8.36946389 27.89594686 -6.4247638 30.36442824 -2.91796875 32.48046875 C1.55435681 34.32580668 6.86733906 34.10455813 11.45703125 32.69921875 C13.0883696 31.99817518 14.67578705 31.1963285 16.25 30.375 C15.03774852 34.01175444 14.2375632 34.30983486 10.9375 36.0625 C4.39235571 39.15248228 -2.08555627 39.70546214 -9.078125 37.7109375 C-14.12010792 35.4978534 -17.70124074 31.92176555 -20.75 27.375 C-22.56709841 21.92370476 -22.56891217 16.4995455 -20.25 11.1875 C-15.82313635 3.22551502 -8.65639459 0.17064577 0 0 Z " fill="#0D0D0D" transform="translate(338.75,61.625)"/>
<path d="M0 0 C2.80859375 1.453125 2.80859375 1.453125 5 3 C5.598125 3.4125 6.19625 3.825 6.8125 4.25 C8.77025787 7.13511687 8.36094215 9.63120656 8 13 C6.80932617 14.70043945 6.80932617 14.70043945 5 16 C2.5480957 16.34057617 2.5480957 16.34057617 -0.32421875 16.29296875 C-1.35224609 16.28330078 -2.38027344 16.27363281 -3.43945312 16.26367188 C-5.04723633 16.2259668 -5.04723633 16.2259668 -6.6875 16.1875 C-7.77095703 16.17396484 -8.85441406 16.16042969 -9.97070312 16.14648438 C-12.64763405 16.11110643 -15.32356838 16.06174189 -18 16 C-17.71249839 17.42976328 -17.41657752 18.85783504 -17.1171875 20.28515625 C-16.95331543 21.08058838 -16.78944336 21.87602051 -16.62060547 22.69555664 C-15.55287892 26.66025802 -13.6931188 29.93772204 -10.17578125 32.14453125 C-5.39608144 34.02380281 0.17357635 33.57075739 5 32.0625 C5.66 31.711875 6.32 31.36125 7 31 C7.66 30.67 8.32 30.34 9 30 C7.62732371 33.36800987 6.42557847 34.72665609 3.125 36.25 C-3.16515349 38.80252605 -9.82505117 39.2263051 -16.3671875 37.3046875 C-21.14958153 35.15712188 -24.00877319 32.26023212 -27 28 C-28.87412196 22.37763411 -29.21766062 15.39757013 -27.19921875 9.765625 C-21.04854257 0.2119974 -10.62025338 -1.53916716 0 0 Z " fill="#080808" transform="translate(525,62)"/>
<path d="M0 0 C6.93 0 13.86 0 21 0 C19.68 0.99 18.36 1.98 17 3 C16.42273684 5.26867432 16.42273684 5.26867432 16.54589844 7.83862305 C16.54620056 8.8194133 16.54650269 9.80020355 16.54681396 10.81071472 C16.56745911 11.86704605 16.58810425 12.92337738 16.609375 14.01171875 C16.61503479 15.09508011 16.62069458 16.17844147 16.62652588 17.29463196 C16.64894034 20.7593683 16.69914782 24.22307553 16.75 27.6875 C16.77005836 30.03449029 16.78831028 32.38149676 16.8046875 34.72851562 C16.84882169 40.486029 16.91578459 46.24294099 17 52 C18.65 52.66 20.3 53.32 22 54 C22 54.33 22 54.66 22 55 C14.74 55 7.48 55 0 55 C1.32 54.01 2.64 53.02 4 52 C4.60361617 49.75498814 4.60361617 49.75498814 4.51757812 47.20898438 C4.53018677 46.2378772 4.54279541 45.26677002 4.55578613 44.26623535 C4.54768921 43.21931519 4.53959229 42.17239502 4.53125 41.09375 C4.5350769 40.01750366 4.53890381 38.94125732 4.54284668 37.83239746 C4.54556967 35.55606145 4.53818156 33.27969436 4.52148438 31.00341797 C4.5000815 27.51328973 4.5212743 24.02522023 4.546875 20.53515625 C4.54423179 18.32551628 4.53910697 16.11587759 4.53125 13.90625 C4.54339539 12.33586975 4.54339539 12.33586975 4.55578613 10.73376465 C4.54317749 9.76265747 4.53056885 8.79155029 4.51757812 7.79101562 C4.51280457 6.50886169 4.51280457 6.50886169 4.50793457 5.20080566 C4.11375195 2.41387785 4.11375195 2.41387785 0 0 Z " fill="#0E0E0E" transform="translate(171,45)"/>
<path d="M0 0 C4.59825967 1.01161713 7.19930722 3.02507102 10.125 6.6875 C14.07957513 13.88923359 15.27238514 21.57300301 14.125 29.6875 C13.17686358 32.63850449 12.47166697 33.46117493 10.125 35.6875 C6.03758238 37.04997254 3.99872064 37.03698826 0 35.4375 C-5.81470343 29.87560976 -8.09371237 23.38293395 -8.45751953 15.44433594 C-8.47153809 14.74083008 -8.48555664 14.03732422 -8.5 13.3125 C-8.52304199 12.63477539 -8.54608398 11.95705078 -8.56982422 11.25878906 C-8.50983265 7.41742436 -7.94496226 5.7744895 -5.515625 2.75390625 C-2.875 0.6875 -2.875 0.6875 0 0 Z " fill="#FAFAFA" transform="translate(214.875,62.3125)"/>
<path d="M0 0 C1.57299805 1.09985352 1.57299805 1.09985352 2.83203125 2.86328125 C3.66304434 7.57865991 3.48428274 12.21614855 3.33203125 16.98828125 C3.32171875 18.28894531 3.31140625 19.58960938 3.30078125 20.9296875 C3.14052993 30.55478257 3.14052993 30.55478257 0.83203125 32.86328125 C-2.59430564 33.55964109 -5.74307866 33.56191681 -9.16796875 32.86328125 C-11.79922975 30.91122786 -13.48774904 28.65607888 -15.16796875 25.86328125 C-15.54050781 25.28835937 -15.91304688 24.7134375 -16.296875 24.12109375 C-17.58186956 20.79048006 -17.57639621 17.50928859 -17.60546875 13.98828125 C-17.63833984 13.29347656 -17.67121094 12.59867188 -17.70507812 11.8828125 C-17.74558928 7.97164466 -17.22965945 5.43678316 -14.828125 2.41796875 C-10.26234638 -1.96678781 -5.82263414 -2.0892559 0 0 Z " fill="#F6F6F6" transform="translate(438.16796875,64.13671875)"/>
<path d="M0 0 C0.83571533 0.58112549 1.67143066 1.16225098 2.5324707 1.76098633 C13.28355924 9.3740695 13.28355924 9.3740695 17.6875 14 C17.6875 14.66 17.6875 15.32 17.6875 16 C13.58531405 16.31586382 11.64272888 15.68581536 8.3515625 13.25390625 C7.54187012 12.66786621 6.73217773 12.08182617 5.89794922 11.47802734 C5.04475098 10.84590332 4.19155273 10.2137793 3.3125 9.5625 C1.51824408 8.27109288 -0.27865433 6.98334958 -2.078125 5.69921875 C-2.96435547 5.06677246 -3.85058594 4.43432617 -4.76367188 3.78271484 C-20.74176628 -7.71161706 -20.74176628 -7.71161706 -39.43554688 -11.54199219 C-50.6282622 -9.43338492 -61.24683398 -1.0149666 -70.5 5.3125 C-71.71106666 6.1316315 -72.92265398 6.94999374 -74.13476562 7.76757812 C-76.33163597 9.250959 -78.52470793 10.73940876 -80.71557617 12.23168945 C-82.57460966 13.49755197 -84.4411426 14.7524284 -86.3125 16 C-87.3025 15.67 -88.2925 15.34 -89.3125 15 C-37.29826491 -25.96853546 -37.29826491 -25.96853546 0 0 Z " fill="#9370F2" transform="translate(104.3125,39)"/>
<path d="M0 0 C-1.1858237 3.37503669 -2.27573689 5.64722731 -5 8 C-5.433125 6.88625 -5.86625 5.7725 -6.3125 4.625 C-7.69911119 0.82487666 -7.69911119 0.82487666 -11 -1 C-13.25122497 -1.27831472 -13.25122497 -1.27831472 -15.625 -1.1875 C-16.42164063 -1.18105469 -17.21828125 -1.17460938 -18.0390625 -1.16796875 C-20.00289734 -1.21182898 -20.00289734 -1.21182898 -21 0 C-21.58442963 2.87237733 -21.58442963 2.87237733 -21 6 C-17.44986373 9.35823701 -14.14381232 10.29272133 -9.4375 11.4375 C-4.665322 12.67280493 -1.701011 13.62249942 1 18 C1.80854803 21.52928262 1.91911914 24.48605059 1 28 C-1.01806623 30.53257322 -3.26665847 32.28468873 -6 34 C-6.66 33.67 -7.32 33.34 -8 33 C-7.34 32.34 -6.68 31.68 -6 31 C-5.75787127 29.01871492 -5.75787127 29.01871492 -5.875 26.875 C-5.91625 25.59625 -5.9575 24.3175 -6 23 C-6.845625 22.84144531 -7.69125 22.68289062 -8.5625 22.51953125 C-21.82917424 19.79081757 -21.82917424 19.79081757 -27 15 C-29.27070532 11.26794966 -29.45870446 8.35769233 -29 4 C-26.62446292 -0.35515131 -23.70731526 -2.02216201 -19.13671875 -3.4921875 C-11.63514013 -5.2750124 -6.6399097 -3.44291614 0 0 Z " fill="#0A0A0A" transform="translate(489,65)"/>
<path d="M0 0 C10.14574565 0.9579095 22.58546878 5.48189953 29.5 13.1875 C33.18441501 18.04888092 34.17845478 22.46090998 34.3125 28.5 C34.55550906 33.98123974 34.55550906 33.98123974 37.5625 38.3125 C38.366875 38.869375 39.17125 39.42625 40 40 C39.67 40.99 39.34 41.98 39 43 C35.25201939 41.31987076 35.25201939 41.31987076 33.78125 39.453125 C31.09691566 37.2632733 28.7240759 37.62519923 25.3125 37.5625 C16.71074943 37.08462497 11.97287885 35.4006918 6.125 29.0625 C0.51921531 22.16993291 -0.14491564 15.3610581 -0.0625 6.625 C-0.05347656 5.37976562 -0.04445312 4.13453125 -0.03515625 2.8515625 C-0.02355469 1.91054688 -0.01195312 0.96953125 0 0 Z M1 2 C0.67403557 11.12700396 2.20267138 21.41666839 8.3828125 28.609375 C14.37814135 33.94553157 20.38334184 34.30466633 28 34 C27.59007813 33.45730469 27.18015625 32.91460937 26.7578125 32.35546875 C25.94957031 31.28232422 25.94957031 31.28232422 25.125 30.1875 C24.59132813 29.47980469 24.05765625 28.77210937 23.5078125 28.04296875 C22.29185219 26.39543703 21.13583859 24.70375789 20 23 C20.55429688 23.5053125 21.10859375 24.010625 21.6796875 24.53125 C22.40414062 25.1809375 23.12859375 25.830625 23.875 26.5 C24.59429687 27.1496875 25.31359375 27.799375 26.0546875 28.46875 C27.84931098 30.20617272 27.84931098 30.20617272 30 30 C30.52939784 24.15309498 30.75541919 19.27500896 26.875 14.58984375 C22.79383738 11.12935794 17.86217909 9.13221035 13 7 C12.11699219 6.59523438 11.23398437 6.19046875 10.32421875 5.7734375 C7.23873472 4.36956752 4.21802447 3.07267482 1 2 Z " fill="#9674F3" transform="translate(49,47)"/>
<path d="M0 0 C4.86182168 -0.19447287 8.44102516 0.35980225 13 2 C13.02505615 2.98395752 13.0501123 3.96791504 13.07592773 4.98168945 C13.1701082 8.63270057 13.2703029 12.28352616 13.37231445 15.93432617 C13.41562305 17.51436015 13.45730106 19.09443969 13.49731445 20.67456055 C13.55511583 22.94594048 13.6187816 25.21709189 13.68359375 27.48828125 C13.70030624 28.19463211 13.71701874 28.90098297 13.73423767 29.6287384 C13.8259747 32.6664824 14.03207686 35.09623058 15 38 C13.24929483 37.88529863 11.49942464 37.75780972 9.75 37.625 C8.77546875 37.55539063 7.8009375 37.48578125 6.796875 37.4140625 C4.10366811 37.01534751 2.33036721 36.36492937 0 35 C0.99 34.34 1.98 33.68 3 33 C3.46753419 30.12473445 3.46753419 30.12473445 3.3984375 26.75 C3.40230469 25.5021875 3.40617187 24.254375 3.41015625 22.96875 C3.39855469 21.6590625 3.38695312 20.349375 3.375 19 C3.38660156 17.6903125 3.39820313 16.380625 3.41015625 15.03125 C3.40628906 13.7834375 3.40242188 12.535625 3.3984375 11.25 C3.39505371 10.10015625 3.39166992 8.9503125 3.38818359 7.765625 C3.26008301 6.85296875 3.13198242 5.9403125 3 5 C2.01 4.34 1.02 3.68 0 3 C0 2.01 0 1.02 0 0 Z " fill="#020202" transform="translate(437,62)"/>
<path d="M0 0 C5.50348362 0.31151794 9.53512721 1.39586886 13.3828125 5.4609375 C17.95014475 10.81124099 18.35616432 13.97902922 18.2734375 20.88671875 C17.80662092 26.201759 16.14826386 29.91653297 12.31640625 33.6328125 C10.55055064 35.02271175 9.08749542 36.16225513 7 37 C4.78125 36.62109375 4.78125 36.62109375 3 36 C3.9590625 35.071875 3.9590625 35.071875 4.9375 34.125 C8.77012189 30.17623805 8.33478638 26.62275247 8.27734375 21.3125 C7.78948091 15.48563117 6.36701147 9.65567141 2.3984375 5.203125 C0.63054732 3.65635401 0.63054732 3.65635401 -2 2 C-1.34 1.34 -0.68 0.68 0 0 Z " fill="#060606" transform="translate(220,62)"/>
<path d="M0 0 C34.65 0 69.3 0 105 0 C105.495 0.99 105.495 0.99 106 2 C102.94225823 3.52887089 99.7496941 3.1385054 96.39526367 3.12939453 C95.60940384 3.13114685 94.82354401 3.13289917 94.01387024 3.13470459 C91.39854763 3.13912639 88.78329214 3.13617863 86.16796875 3.1328125 C84.33783455 3.13348672 82.50770043 3.13445774 80.67756653 3.13571167 C76.82304032 3.13719011 72.9685372 3.1350341 69.11401367 3.13037109 C64.23527465 3.12474985 59.35659157 3.12790265 54.47785473 3.13394356 C50.68451033 3.13761104 46.89117848 3.13638141 43.09783363 3.13381577 C41.30377508 3.13315943 39.5097153 3.13392834 37.71565819 3.13629532 C24.7828905 3.14958196 11.91296085 2.71282255 -1 2 C-0.67 1.34 -0.34 0.68 0 0 Z " fill="#9A7AF3" transform="translate(16,99)"/>
<path d="M0 0 C3.33474507 2.97998496 4.83654924 4.78579435 5.4375 9.25 C5 12 5 12 3 14 C0.0906442 14.14517744 -2.719946 14.18630796 -5.625 14.125 C-6.42679687 14.11597656 -7.22859375 14.10695313 -8.0546875 14.09765625 C-10.03658523 14.07406223 -12.01832981 14.03819065 -14 14 C-13.37395733 8.56569142 -12.41733402 5.3493342 -9 1 C-5.82121306 -0.58939347 -3.5043228 -0.41576711 0 0 Z " fill="#EDEDED" transform="translate(341,63)"/>
<path d="M0 0 C3.33474507 2.97998496 4.83654924 4.78579435 5.4375 9.25 C5 12 5 12 3 14 C0.25514407 14.14507695 -2.38480543 14.18652423 -5.125 14.125 C-5.87910156 14.11597656 -6.63320313 14.10695313 -7.41015625 14.09765625 C-9.27357254 14.0740687 -11.13682593 14.03819719 -13 14 C-13.12404682 8.97315045 -13.13560604 6.06467449 -10 2 C-6.23500419 -0.5099972 -4.45706394 -0.61476744 0 0 Z " fill="#F1F1F1" transform="translate(520,63)"/>
<path d="M0 0 C2.0625 0.4375 2.0625 0.4375 4 1 C4.05029881 4.8919675 4.08613311 8.78380325 4.10986328 12.67602539 C4.1245951 14.63369418 4.15003698 16.59127318 4.17578125 18.54882812 C4.21824802 26.89354848 3.54093477 34.79760593 2 43 C1.34 43 0.68 43 0 43 C-0.97227864 34.65700767 -1.15594127 26.36748587 -1.13037109 17.98046875 C-1.1249201 15.84368077 -1.13039691 13.70709487 -1.13671875 11.5703125 C-1.13605943 10.21093704 -1.13478132 8.8515617 -1.1328125 7.4921875 C-1.13168457 6.26870605 -1.13055664 5.04522461 -1.12939453 3.78466797 C-1 1 -1 1 0 0 Z " fill="#9776F3" transform="translate(28,52)"/>
<path d="M0 0 C2.0625 0.4375 2.0625 0.4375 4 1 C4.05029881 4.8919675 4.08613311 8.78380325 4.10986328 12.67602539 C4.1245951 14.63369418 4.15003698 16.59127318 4.17578125 18.54882812 C4.21824802 26.89354848 3.54093477 34.79760593 2 43 C-2.13113611 35.28847599 -1.15680019 26.15945082 -1.13037109 17.6340332 C-1.1249496 15.54305989 -1.13037435 13.45229543 -1.13671875 11.36132812 C-1.13542969 10.04712891 -1.13414063 8.73292969 -1.1328125 7.37890625 C-1.13168457 6.1782251 -1.13055664 4.97754395 -1.12939453 3.74047852 C-1 1 -1 1 0 0 Z " fill="#9370F2" transform="translate(107,52)"/>
<path d="M0 0 C14.19 0 28.38 0 43 0 C45 9 45 9 44 13 C43.45730469 12.36191406 42.91460937 11.72382812 42.35546875 11.06640625 C41.64003906 10.24011719 40.92460937 9.41382813 40.1875 8.5625 C39.47980469 7.73878906 38.77210938 6.91507813 38.04296875 6.06640625 C34.32261136 2.3033679 29.80676089 2.70392034 24.8125 2.4375 C22.234375 2.293125 19.65625 2.14875 17 2 C17 9.92 17 17.84 17 26 C20.96 26 24.92 26 29 26 C29 26.33 29 26.66 29 27 C24.71 27 20.42 27 16 27 C16 18.42 16 9.84 16 1 C10.06 1.495 10.06 1.495 4 2 C2.68 1.34 1.36 0.68 0 0 Z " fill="#666666" transform="translate(358,45)"/>
<path d="M0 0 C1 3 1 3 -3 17 C-24.78 16.505 -24.78 16.505 -47 16 C-43.43552315 13.6236821 -42.08433331 13.81541957 -37.875 13.9375 C-21.09411835 15.10689562 -21.09411835 15.10689562 -6.515625 8.765625 C-4.10334461 5.95544269 -1.99874972 3.12304644 0 0 Z " fill="#323232" transform="translate(405,84)"/>
<path d="M0 0 C2.61192963 -0.3841073 4.37143174 -0.40150173 6.6328125 1.04296875 C8.83193717 2.85432506 10.7132625 4.42652499 12 7 C12.45577301 12.35533283 12.45577301 12.35533283 10.81713867 14.6730957 C8.3425424 16.48008626 6.71955674 16.34341807 3.67578125 16.29296875 C2.64775391 16.28330078 1.61972656 16.27363281 0.56054688 16.26367188 C-1.04723633 16.2259668 -1.04723633 16.2259668 -2.6875 16.1875 C-3.77095703 16.17396484 -4.85441406 16.16042969 -5.97070312 16.14648438 C-8.64763405 16.11110643 -11.32356838 16.06174189 -14 16 C-14 15.67 -14 15.34 -14 15 C-12.85660156 14.93941406 -11.71320313 14.87882812 -10.53515625 14.81640625 C-9.04425695 14.73201572 -7.55337225 14.64736698 -6.0625 14.5625 C-5.30775391 14.52318359 -4.55300781 14.48386719 -3.77539062 14.44335938 C-0.08055813 14.55961976 -0.08055813 14.55961976 3 13 C3.40612834 8.43105613 2.88815785 6.4898574 0 3 C0 2.01 0 1.02 0 0 Z " fill="#060606" transform="translate(342,62)"/>
<path d="M0 0 C2.19610671 0.97527888 4.34754453 1.99560179 6.48046875 3.1015625 C5.29464505 6.47659919 4.20473186 8.74878981 1.48046875 11.1015625 C1.04734375 9.9878125 0.61421875 8.8740625 0.16796875 7.7265625 C-1.21864244 3.92643916 -1.21864244 3.92643916 -4.51953125 2.1015625 C-7.02849811 1.64554989 -7.02849811 1.64554989 -9.70703125 1.4765625 C-10.60808594 1.40179688 -11.50914062 1.32703125 -12.4375 1.25 C-13.12457031 1.20101562 -13.81164062 1.15203125 -14.51953125 1.1015625 C-9.66285284 -1.5787236 -5.19261596 -1.8516305 0 0 Z " fill="#252525" transform="translate(482.51953125,61.8984375)"/>
<path d="M0 0 C1.81624092 1.81624092 3.55228347 3.6289895 5.25 5.5625 C8.56824082 8.503668 10.72956615 9.07892603 15 10 C15 10.33 15 10.66 15 11 C7.75460274 11.53449652 3.27087737 10.71607548 -3 7 C-1.125 1.125 -1.125 1.125 0 0 Z " fill="#111111" transform="translate(463,89)"/>
<path d="M0 0 C4.29 0 8.58 0 13 0 C15.27678571 8.03571429 15.27678571 8.03571429 14 12 C13.23816406 11.06027344 13.23816406 11.06027344 12.4609375 10.1015625 C7.36524841 3.84789065 7.36524841 3.84789065 0 1 C0 0.67 0 0.34 0 0 Z " fill="#121212" transform="translate(388,46)"/>
<path d="M0 0 C0.33 0 0.66 0 1 0 C1 4.95 1 9.9 1 15 C-0.46484375 13.73046875 -1.9296875 12.4609375 -3.39453125 11.19140625 C-5.10712971 9.79128769 -5.10712971 9.79128769 -8 9 C-8 8.01 -8 7.02 -8 6 C-7.05125 5.566875 -6.1025 5.13375 -5.125 4.6875 C-1.79958063 3.20697799 -1.79958063 3.20697799 0 0 Z " fill="#0D0D0D" transform="translate(395,65)"/>
<path d="M0 0 C2.27864583 0.06510417 4.55729167 0.13020833 6.8359375 0.1953125 C6.8359375 4.1553125 6.8359375 8.1153125 6.8359375 12.1953125 C5.8459375 12.1953125 4.8559375 12.1953125 3.8359375 12.1953125 C3.5059375 9.2253125 3.1759375 6.2553125 2.8359375 3.1953125 C1.5159375 3.1953125 0.1959375 3.1953125 -1.1640625 3.1953125 C-1.4940625 4.5153125 -1.8240625 5.8353125 -2.1640625 7.1953125 C-2.8240625 7.1953125 -3.4840625 7.1953125 -4.1640625 7.1953125 C-4.2890625 4.8203125 -4.2890625 4.8203125 -4.1640625 2.1953125 C-2.1640625 0.1953125 -2.1640625 0.1953125 0 0 Z " fill="#9877F3" transform="translate(94.1640625,19.8046875)"/>
<path d="M0 0 C0.66 0.33 1.32 0.66 2 1 C-0.41970428 6.07771277 -3.92694317 8.40469071 -8.5 11.375 C-9.17675781 11.83777344 -9.85351562 12.30054688 -10.55078125 12.77734375 C-12.31143306 13.94069357 -14.15234747 14.98046201 -16 16 C-16.99 15.67 -17.98 15.34 -19 15 C-18.18994507 14.37170288 -18.18994507 14.37170288 -17.36352539 13.73071289 C-14.92929301 11.84202553 -12.49588646 9.95227711 -10.0625 8.0625 C-8.78729492 7.0734668 -8.78729492 7.0734668 -7.48632812 6.06445312 C-6.67744141 5.43603516 -5.86855469 4.80761719 -5.03515625 4.16015625 C-4.2862915 3.57886963 -3.53742676 2.99758301 -2.76586914 2.39868164 C-1.08071622 1.11913562 -1.08071622 1.11913562 0 0 Z " fill="#9675F3" transform="translate(34,39)"/>
<path d="M0 0 C0.33 0.99 0.66 1.98 1 3 C-1.626591 5.91843445 -4.66976339 7.94517315 -8 10 C-8.66 10 -9.32 10 -10 10 C-9.78515625 7.67578125 -9.78515625 7.67578125 -9 5 C-6.93359375 3.41796875 -6.93359375 3.41796875 -4.4375 2.1875 C-3.61121094 1.76855469 -2.78492187 1.34960938 -1.93359375 0.91796875 C-1.29550781 0.61503906 -0.65742187 0.31210938 0 0 Z " fill="#9A7AF3" transform="translate(104,6)"/>
<path d="M0 0 C0.66 0 1.32 0 2 0 C2.49917151 1.96340794 2.99650014 3.92732071 3.48046875 5.89453125 C3.89090617 7.55788291 4.31754024 9.2172376 4.75 10.875 C4.8325 11.57625 4.915 12.2775 5 13 C4.34 13.66 3.68 14.32 3 15 C0.5978396 10.1956792 0.38877771 5.26896105 0 0 Z " fill="#A183F4" transform="translate(49,57)"/>
<path d="M0 0 C0.66 0.33 1.32 0.66 2 1 C2 1.66 2 2.32 2 3 C0.13671875 4.54296875 0.13671875 4.54296875 -2.3125 6.1875 C-3.11300781 6.73792969 -3.91351563 7.28835937 -4.73828125 7.85546875 C-5.48464844 8.23316406 -6.23101563 8.61085938 -7 9 C-7.99 8.67 -8.98 8.34 -10 8 C-6.7 5.36 -3.4 2.72 0 0 Z " fill="#A588F4" transform="translate(25,46)"/>
<path d="M0 0 C-0.33 1.32 -0.66 2.64 -1 4 C-2.65 4.33 -4.3 4.66 -6 5 C-6 4.01 -6 3.02 -6 2 C-2.25 0 -2.25 0 0 0 Z " fill="#9A79F3" transform="translate(111,12)"/>
<path d="M0 0 C0 0.99 0 1.98 0 3 C-3.96 4.98 -3.96 4.98 -8 7 C-5.79419342 2.58838683 -5.35118592 2.45039531 -1 1 C-0.67 0.67 -0.34 0.34 0 0 Z " fill="#333333" transform="translate(533,92)"/>
</svg>
